<svg width="90" height="91" viewBox="0 0 90 91" fill="none" xmlns="http://www.w3.org/2000/svg">
<path d="M49.5 63.2611C60.1041 64.1417 68 67.5127 68 71.5369C68 76.2313 57.2548 80.0369 44 80.0369C30.7452 80.0369 20 76.2313 20 71.5369C20 67.5127 27.8959 64.1417 38.5 63.2611" stroke="#004876" stroke-width="2"/>
<path d="M59.0068 45.9193L58.2112 45.3135C58.1855 45.3472 58.1619 45.3826 58.1407 45.4193L59.0068 45.9193ZM28.8613 45.9199L29.7274 45.4199C29.7062 45.3832 29.6826 45.3478 29.6569 45.3141L28.8613 45.9199ZM43.9339 72.0263L43.0678 72.5263C43.2465 72.8357 43.5766 73.0263 43.9339 73.0263C44.2911 73.0263 44.6213 72.8357 44.7999 72.5263L43.9339 72.0263ZM61.8676 34.4592C61.8676 38.5401 60.5057 42.3002 58.2112 45.3135L59.8024 46.5251C62.3529 43.1757 63.8676 38.9929 63.8676 34.4592H61.8676ZM43.9338 16.5254C53.8384 16.5254 61.8676 24.5546 61.8676 34.4592H63.8676C63.8676 23.4501 54.9429 14.5254 43.9338 14.5254V16.5254ZM26 34.4592C26 24.5546 34.0292 16.5254 43.9338 16.5254V14.5254C32.9247 14.5254 24 23.4501 24 34.4592H26ZM29.6569 45.3141C27.3621 42.3007 26 38.5404 26 34.4592H24C24 38.9932 25.5149 43.1762 28.0658 46.5258L29.6569 45.3141ZM44.7999 71.5263L29.7274 45.4199L27.9953 46.4199L43.0678 72.5263L44.7999 71.5263ZM58.1407 45.4193L43.0678 71.5263L44.7999 72.5263L59.8728 46.4193L58.1407 45.4193Z" fill="#004876"/>
<circle cx="44" cy="35.0371" r="11" stroke="#004876" stroke-width="2" stroke-linejoin="round"/>
<g style="mix-blend-mode:multiply">
<path d="M26.8043 14.5473C37.3238 4.02777 54.3793 4.02778 64.8989 14.5473V14.5473C75.4184 25.0669 75.4184 42.1224 64.8989 52.6419L64.094 53.4468L25.9994 15.3521L26.8043 14.5473Z" fill="#BFEAF5"/>
</g>
</svg>
