<?xml version="1.0" encoding="UTF-8"?><svg id="Layer_1" xmlns="http://www.w3.org/2000/svg" viewBox="0 0 327.31 348.35"><defs><style>.cls-1{fill:#8ab7e9;}.cls-2{fill:#fff;}.cls-3{fill:#0075a9;}.cls-4{stroke:#fff;stroke-width:10.09px;}.cls-4,.cls-5{fill:none;stroke-miterlimit:10;}.cls-5{stroke:#0075a9;stroke-width:5.05px;}.cls-6{fill:#282d33;}</style></defs><circle class="cls-5" cx="163.66" cy="163.66" r="161.13"/><g><g><path class="cls-4" d="M287.89,163.24c-2.99-53.46-19.42-108.1-84.33-123.53v-10.12h-13.66v7.56c-6.09-.85-12.56-1.39-19.41-1.61V15.55h-13.66v19.98c-6.85,.22-13.32,.76-19.41,1.61v-7.56h-13.66v10.12C58.84,55.14,42.42,109.78,39.43,163.24l-.5,13.66c-.05,2.68-.08,5.36-.08,8.01,0,1.63,.06,3.22,.12,4.81h249.38c.06-1.59,.12-3.18,.12-4.81,0-2.65-.03-5.33-.08-8.01l-.5-13.66Z"/><path class="cls-4" d="M262.09,202.86H46.51v23.3c0,64.59,52.55,117.14,117.15,117.14s117.14-52.55,117.14-117.14v-23.3h-18.71Z"/></g><g><path class="cls-3" d="M38.92,176.9c-.05,2.68-.08,5.36-.08,8.01,0,1.63,.06,3.22,.12,4.81H203.56v-12.82H38.92Z"/><path class="cls-3" d="M203.56,105.08h-13.66V37.14c-6.09-.85-12.56-1.39-19.41-1.61V105.08h-13.66V35.53c-6.85,.22-13.32,.76-19.41,1.61V105.08h-13.66V39.71C58.84,55.14,42.42,109.78,39.43,163.24H203.56v-58.15Z"/><polygon class="cls-6" points="39.43 163.24 14.65 163.24 14.65 176.9 38.92 176.9 203.56 176.9 203.56 163.24 39.43 163.24"/><polygon class="cls-6" points="123.75 29.58 123.75 39.71 123.75 105.08 137.41 105.08 137.41 37.14 137.41 29.58 123.75 29.58"/><polygon class="cls-6" points="189.9 29.58 189.9 37.14 189.9 105.08 203.56 105.08 203.56 39.71 203.56 29.58 189.9 29.58"/><polygon class="cls-6" points="156.83 15.55 156.83 35.53 156.83 105.08 170.49 105.08 170.49 35.53 170.49 15.55 156.83 15.55"/><polygon class="cls-6" points="287.89 163.24 227.67 163.24 227.67 176.9 288.39 176.9 312.66 176.9 312.66 163.24 287.89 163.24"/><path class="cls-1" d="M288.39,176.9h-60.72v-13.66h60.22c-2.99-53.46-19.42-108.1-84.33-123.53V189.71h84.79c.06-1.59,.12-3.18,.12-4.81,0-2.65-.03-5.33-.08-8.01Z"/><path class="cls-2" d="M163.66,324.59c54.28,0,98.43-44.16,98.43-98.44v-23.3h-82.43v40.18h-18.71v-40.18H65.22v23.3c0,54.28,44.16,98.44,98.44,98.44Z"/><path class="cls-6" d="M271.45,202.86v23.3c0,59.53-48.26,107.79-107.79,107.79s-107.79-48.26-107.79-107.79v-23.3h-9.35v23.3c0,64.59,52.55,117.14,117.15,117.14s117.14-52.55,117.14-117.14v-23.3h-9.35Z"/><path class="cls-6" d="M262.09,226.16c0,54.28-44.16,98.44-98.43,98.44s-98.44-44.16-98.44-98.44v-23.3h-9.35v23.3c0,59.53,48.26,107.79,107.79,107.79s107.79-48.26,107.79-107.79v-23.3h-9.35v23.3Z"/><rect class="cls-6" x="160.95" y="202.86" width="18.71" height="40.18"/></g></g></svg>