<?xml version="1.0" encoding="UTF-8"?><svg id="Layer_1" xmlns="http://www.w3.org/2000/svg" viewBox="0 0 339.93 340"><defs><style>.cls-1{fill:#d9d8d6;}.cls-2{fill:#fff;}.cls-3{fill:none;stroke:#1c355e;stroke-width:5.82px;}.cls-3,.cls-4{stroke-miterlimit:10;}.cls-4{fill:#8ab7e9;stroke:#8ab7e9;stroke-width:2.91px;}.cls-5{fill:#0075a9;}.cls-6{fill:#282d33;}</style></defs><circle class="cls-3" cx="169.97" cy="170" r="143.44"/><g><g><g><path class="cls-2" d="M244.67,185.95v-21.95s-19.5-1.62-19.5-1.62c-1.37-7.18-4.01-13.91-7.69-19.93l13.03-15.39-15.51-15.52-14.94,12.64c-5.85-3.98-12.45-6.94-19.54-8.64l-1.67-20.11h-21.96l-1.62,19.51c-7.18,1.37-13.91,4.01-19.93,7.69l-15.39-13.03-15.52,15.51,12.64,14.94c-3.98,5.85-6.94,12.45-8.64,19.53l-20.1,1.68v21.94s19.5,1.62,19.5,1.62c1.37,7.18,4.01,13.91,7.7,19.93l-13.03,15.4,15.51,15.52,14.94-12.64c5.85,3.98,12.45,6.94,19.54,8.64l1.66,20.11h21.96s1.62-19.5,1.62-19.5c7.18-1.36,13.91-4.01,19.93-7.69l15.4,13.03,15.51-15.51-12.64-14.94c3.98-5.85,6.94-12.44,8.64-19.53l20.1-1.67Z"/><path class="cls-6" d="M182.41,258.62h-34.56s-1.79-21.65-1.79-21.65c-4.35-1.4-8.53-3.23-12.5-5.5l-15.94,13.49-24.41-24.42,14.02-16.57c-2.08-4.06-3.73-8.31-4.94-12.73l-20.81-1.73v-34.54s21.65-1.8,21.65-1.8c1.4-4.35,3.23-8.52,5.5-12.49l-13.49-15.94,24.43-24.42,16.57,14.03c4.06-2.08,8.31-3.73,12.72-4.94l1.73-20.81h34.55l1.8,21.65c4.35,1.4,8.53,3.23,12.49,5.5l15.94-13.49,24.42,24.43-14.03,16.58c2.08,4.06,3.73,8.32,4.94,12.73l20.81,1.72v34.55s-21.65,1.8-21.65,1.8c-1.4,4.35-3.23,8.52-5.5,12.49l13.48,15.95-24.42,24.42-16.58-14.03c-4.07,2.09-8.32,3.74-12.73,4.94l-1.73,20.81Zm-21.95-13.69h9.36l1.53-18.41,5.11-.97c6.26-1.19,12.19-3.48,17.63-6.81l4.22-2.58,14.37,12.16,6.61-6.61-11.93-14.11,2.92-4.3c3.59-5.27,6.16-11.09,7.65-17.28l1.16-4.81,18.75-1.56v-9.35s-18.4-1.53-18.4-1.53l-.97-5.11c-1.2-6.28-3.49-12.21-6.81-17.64l-2.58-4.22,12.15-14.36-6.61-6.61-14.1,11.93-4.3-2.92c-5.27-3.58-11.09-6.16-17.29-7.65l-4.81-1.16-1.56-18.76h-9.36l-1.53,18.41-5.11,.98c-6.28,1.2-12.22,3.49-17.64,6.81l-4.22,2.58-14.36-12.16-6.61,6.61,11.93,14.1-2.92,4.3c-3.59,5.28-6.16,11.09-7.65,17.29l-1.16,4.81-18.75,1.57v9.35s18.4,1.53,18.4,1.53l.98,5.11c1.2,6.28,3.49,12.22,6.81,17.63l2.59,4.22-12.16,14.37,6.6,6.61,14.1-11.93,4.3,2.92c5.27,3.58,11.09,6.16,17.3,7.65l4.81,1.16,1.55,18.76Z"/></g><path class="cls-1" d="M195.4,173.61c0,15.96-12.93,28.89-28.9,28.89s-28.9-12.93-28.9-28.89,12.95-28.9,28.9-28.9,28.9,12.94,28.9,28.9Z"/></g><path class="cls-5" d="M48.78,291.22C17.32,259.77,0,217.94,0,173.46c0-40.6,14.48-79.06,41-109.4l33.99,33.99c-38.32,46.51-35.68,115.95,7.67,159.3,43.35,43.35,112.78,45.99,159.3,7.66l33.98,33.99c-30.34,26.51-68.8,41-109.4,41-44.48,0-86.3-17.33-117.76-48.78Z"/><path class="cls-4" d="M55.42,49.44C83.08,24.6,117.76,9.92,154.85,7.36V55.43c-24.27,2.36-47,12.05-65.5,27.94L55.42,49.44Z"/><g><path class="cls-2" d="M256.63,250.65c39.94-46.56,37.87-116.99-6.21-161.07-20.34-20.33-46.67-32.34-75.04-34.4V7.21c41.16,2.13,79.57,19.16,108.91,48.5,62.77,62.77,64.86,163.58,6.28,228.89l-33.95-33.95Z"/><path class="cls-6" d="M290.84,294.55l-43.54-43.54,4.13-4.81c37.78-44.04,35.21-110.7-5.85-151.77-19.25-19.24-43.69-30.45-70.69-32.41l-6.35-.46V0l7.2,.37c42.78,2.22,83.05,20.15,113.4,50.49,65.12,65.12,67.98,169.79,6.53,238.3l-4.82,5.38Zm-25.01-44.37l24.35,24.36c51.69-63.09,47.53-155.73-10.73-213.99-26.24-26.24-60.54-42.4-97.23-45.97V48.98c27.52,3.43,53.25,15.98,73.03,35.76,44.59,44.59,48.74,116.07,10.58,165.44Z"/></g></g></svg>