<?xml version="1.0" encoding="UTF-8"?><svg id="Layer_2" xmlns="http://www.w3.org/2000/svg" viewBox="0 0 1200 1200"><defs><style>.cls-1{fill:#005487;}.cls-2{fill:#0075a9;}.cls-3{fill:#fff;}.cls-4{fill:#8ab7e9;}.cls-5{fill:#231f20;}</style></defs><g id="Layer_1-2"><g><g><path class="cls-2" d="m86.56,872.62c-43.38-81.37-68.06-174.15-68.06-272.61C18.5,279.36,279.36,18.5,600,18.5s581.5,260.86,581.5,581.51c0,113.51-32.81,219.44-89.28,309.05l-22.84,64.23c81.7-102.53,130.61-232.29,130.61-373.28C1200,269.16,930.84,0,600,0S0,269.16,0,600c0,131.84,42.78,253.86,115.14,352.98l-28.58-80.37Z"/><path class="cls-2" d="m830.53,1133.74c-70.73,30.67-148.66,47.76-230.53,47.76s-161.56-17.52-232.93-48.85l-25.14,8.94c78.22,37.42,165.74,58.41,258.08,58.41s178.1-20.58,255.72-57.31l-25.19-8.96Z"/></g><g><rect class="cls-5" x="423.1" y="102.98" width="106.87" height="99.5" transform="translate(953.08 305.45) rotate(180)"/><rect class="cls-5" x="667.93" y="104.64" width="106.87" height="99.5"/><g><path class="cls-4" d="m320.96,217.21h543.2c11.79,0,21.36,9.57,21.36,21.36v565.31c0,21.96-17.83,39.79-39.79,39.79h-506.35c-21.96,0-39.79-17.83-39.79-39.79V238.58c0-11.79,9.57-21.36,21.36-21.36Z"/><path class="cls-2" d="m610.99,866.35h-36.85c-163.88,0-297.22-133.33-297.22-297.21v-204.52c0-93.78,76.3-170.08,170.08-170.08h291.12c93.78,0,170.07,76.3,170.07,170.08v204.52c0,163.88-133.33,297.21-297.21,297.21ZM447,239.89c-68.77,0-124.73,55.95-124.73,124.73v204.52c0,138.88,112.98,251.86,251.86,251.86h36.85c138.88,0,251.86-112.99,251.86-251.86v-204.52c0-68.77-55.95-124.73-124.73-124.73h-291.12Z"/></g><g><circle class="cls-1" cx="594.29" cy="797.61" r="200.84"/><g><rect class="cls-1" x="752.41" y="815.96" width="140.69" height="152.3" transform="translate(399.45 -245.25) rotate(22.27)"/><g><rect class="cls-4" x="853.12" y="760.39" width="173.43" height="352.73" transform="translate(368.14 -260.73) rotate(19.57)"/><path class="cls-1" d="m976.52,1161.55l-207.03-73.62,133.68-375.97,207.03,73.62-133.68,375.97Zm-147.9-101.73l119.79,42.59,102.66-288.72-119.79-42.59-102.66,288.72Z"/></g></g><g><rect class="cls-1" x="296.31" y="816.85" width="140.69" height="152.3" transform="translate(1044.37 1580.44) rotate(157.73)"/><g><rect class="cls-4" x="162.85" y="761.28" width="173.43" height="352.73" transform="translate(798.84 1737.49) rotate(160.43)"/><path class="cls-1" d="m212.89,1162.43l-133.68-375.97,207.04-73.62,133.68,375.97-207.04,73.62Zm-74.54-347.86l102.65,288.72,119.78-42.59-102.65-288.72-119.78,42.59Z"/></g></g><circle class="cls-5" cx="598.09" cy="799.45" r="81.07"/></g><g><path class="cls-3" d="m819.3,418.94c24.76,70.01,13.63,147.84-29.77,208.19l-41.53-29.86c33.63-46.76,42.26-107.05,23.08-161.28-14.1-39.88-42.1-73.32-78.83-94.16l25.24-44.49c47.44,26.93,83.59,70.1,101.81,121.6Z"/><path class="cls-3" d="m671.12,277.46l-14.85,48.94c-22.21-6.73-45.13-8.98-68.14-6.68l-5.07-50.89c29.74-2.97,59.37-.07,88.06,8.63Z"/></g></g></g></g></svg>