<?xml version="1.0" encoding="utf-8"?>
<!-- Generator: Adobe Illustrator 27.4.0, SVG Export Plug-In . SVG Version: 6.00 Build 0)  -->
<svg version="1.1" id="Layer_1" xmlns="http://www.w3.org/2000/svg" xmlns:xlink="http://www.w3.org/1999/xlink" x="0px" y="0px"
	 viewBox="0 0 350 350" style="enable-background:new 0 0 350 350;" xml:space="preserve">
<style type="text/css">
	.st0{fill:#8CB6E1;}
	.st1{display:none;fill:#FFFFFF;}
	.st2{clip-path:url(#SVGID_00000146488983255518772010000002406899522263676833_);}
	.st3{fill:#026990;}
	.st4{fill:#FFFFFF;}
	.st5{fill:#0283AD;}
	.st6{fill:#1B355E;}
	.st7{fill:#010101;stroke:#FFFFFF;stroke-width:2;stroke-miterlimit:10;}
	.st8{fill:#0275A9;}
	.st9{fill:#292E34;}
</style>
<g>
	<g>
		<path class="st0" d="M175.84,348C83.48,348,8.34,272.86,8.34,180.49c0-92.36,75.14-167.5,167.51-167.5
			c92.36,0,167.5,75.14,167.5,167.5C343.35,272.86,268.2,348,175.84,348z M175.84,18.16C86.33,18.16,13.5,90.98,13.5,180.49
			c0,89.52,72.83,162.34,162.34,162.34c89.51,0,162.34-72.83,162.34-162.34C338.18,90.98,265.36,18.16,175.84,18.16z"/>
	</g>
	<circle class="st1" cx="175.84" cy="180.5" r="143.27"/>
	<g>
		<path class="st0" d="M175.32,310.15c-32.59,0-62.88-14.69-83.1-40.3c-4.91-6.22-7.61-13.97-7.61-21.84v-39.34
			c0-32.47,26.42-58.89,58.89-58.89h63.64c32.47,0,58.89,26.42,58.89,58.89v39.34c0,7.87-2.7,15.62-7.61,21.84
			C238.2,295.46,207.91,310.15,175.32,310.15z"/>
		<path d="M207.14,151.28c31.57,0,57.39,25.83,57.39,57.39v39.34c0,7.59-2.58,14.95-7.29,20.91c-19.1,24.2-48.7,39.73-81.92,39.73
			c-33.22,0-62.82-15.53-81.92-39.73c-4.7-5.96-7.29-13.32-7.29-20.91v-39.34c0-31.57,25.83-57.39,57.39-57.39H207.14
			 M207.14,148.28H143.5c-33.3,0-60.39,27.09-60.39,60.39v39.34c0,8.2,2.82,16.29,7.93,22.77c20.51,25.97,51.22,40.87,84.28,40.87
			c33.05,0,63.77-14.9,84.28-40.87c5.12-6.48,7.93-14.57,7.93-22.77v-39.34C267.53,175.37,240.44,148.28,207.14,148.28
			L207.14,148.28z"/>
	</g>
	<g>
		<defs>
			<path id="SVGID_1_" d="M175.32,292.53c37.8,0,70.91-19.8,89.21-49.44v-35.95c0-27.25-25.29-52.35-40.25-52.99H127.7
				c-13.69,0-41.59,23.46-41.59,51.85v37.08C104.4,272.73,137.51,292.53,175.32,292.53z"/>
		</defs>
		<clipPath id="SVGID_00000061464898976156686630000007403413474764261007_">
			<use xlink:href="#SVGID_1_"  style="overflow:visible;"/>
		</clipPath>
		<g style="clip-path:url(#SVGID_00000061464898976156686630000007403413474764261007_);">
			<path class="st3" d="M139.84,320.52L99.9,141.51l20.13-5.74l17.25,70.21h78.23l13.42-75.37l20.52,4.24l-37.08,185.68H139.84z
				 M195.17,298.27l16.28-70.04h-68.8l13.4,70.04H195.17z"/>
			<path class="st4" d="M230.13,132.38l17.55,3.62l-36.55,183.01h-70.09l-39.37-176.46l17.28-4.93l17.16,69.84h80.66L230.13,132.38
				 M154.8,299.77h41.56l16.97-73.04h-72.5L154.8,299.77 M227.71,128.82l-0.54,3.04l-12.93,72.62h-75.79l-16.59-67.56l-0.74-3.02
				l-2.99,0.85l-17.28,4.93l-2.72,0.78l0.62,2.76l39.37,176.46l0.52,2.35h2.4h70.09h2.46l0.48-2.41l36.55-183.01l0.58-2.92
				l-2.92-0.6l-17.55-3.62L227.71,128.82L227.71,128.82z M144.46,229.73h65.1l-15.58,67.04h-36.7L144.46,229.73L144.46,229.73z"/>
		</g>
	</g>
	<g>
		<path class="st5" d="M175.84,57.23c32.93,0,63.88,12.82,87.16,36.1c23.28,23.28,36.1,54.24,36.1,87.16s-12.82,63.88-36.1,87.16
			c-23.28,23.28-54.24,36.1-87.16,36.1s-63.88-12.82-87.16-36.1c-23.28-23.28-36.1-54.24-36.1-87.16s12.82-63.88,36.1-87.16
			C111.96,70.05,142.92,57.23,175.84,57.23 M175.84,37.23c-79.12,0-143.27,64.14-143.27,143.27s64.14,143.27,143.27,143.27
			s143.27-64.14,143.27-143.27S254.97,37.23,175.84,37.23L175.84,37.23z"/>
	</g>
	<g>
		<circle class="st6" cx="175.32" cy="308.54" r="11.25"/>
	</g>
	<g>
		<circle class="st6" cx="47.27" cy="180.5" r="11.25"/>
	</g>
	<g>
		<circle class="st6" cx="303.36" cy="180.5" r="11.25"/>
	</g>
	<g>
		<circle class="st6" cx="84.77" cy="89.95" r="11.25"/>
	</g>
	<g>
		<circle class="st6" cx="265.86" cy="271.04" r="11.25"/>
	</g>
	<g>
		<circle class="st6" cx="84.77" cy="271.04" r="11.25"/>
	</g>
	<g>
		<circle class="st6" cx="265.86" cy="89.95" r="11.25"/>
	</g>
	<g>
		<circle class="st6" cx="223.73" cy="299.04" r="11.25"/>
	</g>
	<g>
		<circle class="st6" cx="56.77" cy="228.91" r="11.25"/>
	</g>
	<g>
		<circle class="st6" cx="293.86" cy="132.08" r="11.25"/>
	</g>
	<g>
		<circle class="st6" cx="57.26" cy="130.91" r="11.25"/>
	</g>
	<g>
		<circle class="st6" cx="293.37" cy="230.08" r="11.25"/>
	</g>
	<g>
		<circle class="st6" cx="125.73" cy="298.55" r="11.25"/>
	</g>
	<g>
		<g>
			<g>
				<g>
					<path class="st4" d="M108.94,96.1l-0.13-3.41c-0.03-0.85-0.07-1.69-0.07-2.56c0-1.36,0.02-2.73,0.04-4.11l0.25-6.96
						c2.03-36.26,15.96-57.53,42.58-64.99V8.15h13.99v3.38c0.89-0.08,1.79-0.15,2.71-0.21V1.07h13.99v10.26
						c0.91,0.06,1.82,0.13,2.71,0.21V8.15h13.99v5.91c26.62,7.47,40.55,28.71,42.58,64.93l0.26,6.96c0.03,1.44,0.04,2.81,0.04,4.18
						c0,0.87-0.03,1.72-0.07,2.56l-0.13,3.41H108.94z M234.79,89.01c-0.01-0.95-0.02-1.9-0.04-2.86l-0.25-6.81
						c-1.93-34.29-14.59-53.07-39.86-59.08l-2.73-0.65v-0.05l-3.84-0.54c-2.95-0.41-6.12-0.67-9.42-0.78l-3.33-0.11l-3.33,0.11
						c-3.31,0.11-6.48,0.37-9.43,0.78l-3.84,0.54v0.05l-2.73,0.65c-25.27,6.01-37.94,24.8-39.86,59.12l-0.25,6.83
						c-0.02,0.91-0.03,1.85-0.04,2.79H234.79z"/>
					<path class="st4" d="M181.31,2.07v10.2c1.61,0.09,3.18,0.21,4.71,0.37V9.15h11.99v5.68c26.62,7.15,40.56,28.18,42.58,64.22
						l0,0.05l0.25,6.9c0.03,1.42,0.04,2.78,0.04,4.14c0,0.86-0.03,1.69-0.06,2.52l-0.09,2.45H109.9l-0.09-2.45
						c-0.03-0.83-0.06-1.67-0.06-2.52c0-1.35,0.02-2.72,0.04-4.09l0.25-6.94c2.02-36.08,15.96-57.12,42.58-64.27V9.15h11.99v3.49
						c1.53-0.16,3.1-0.29,4.71-0.37V2.07H181.31 M159.52,18.44v-4.2h-1.8v4.58l-1.96,0.47c-25.77,6.13-38.68,25.21-40.63,60.04
						l-0.25,6.85c-0.02,1.25-0.04,2.55-0.04,3.83h120.95c0-1.28-0.02-2.58-0.04-3.88l-0.25-6.82
						c-1.96-34.82-14.87-53.89-40.63-60.02l-1.96-0.47v-4.58h-1.8v4.2l-2.9-0.41c-2.98-0.42-6.19-0.68-9.53-0.79l-2.47-0.08V7.16
						h-1.8v10.01l-2.47,0.08c-3.35,0.11-6.55,0.37-9.53,0.79L159.52,18.44 M183.31,0.07h-2h-11.99h-2v2v8.32
						c-0.24,0.02-0.47,0.04-0.71,0.05V9.15v-2h-2h-11.99h-2v2v4.16c-26.61,7.78-40.54,29.28-42.58,65.67l-0.26,6.98
						c-0.03,1.57-0.04,2.92-0.04,4.17c0,0.9,0.03,1.76,0.07,2.6l0.09,2.45l0.07,1.92h1.92h130.83h1.92l0.07-1.92l0.09-2.45
						c0.03-0.84,0.07-1.7,0.07-2.6c0-1.25-0.01-2.62-0.04-4.18l-0.25-6.93l0-0.01l0-0.06c-2.04-36.37-15.97-57.86-42.57-65.63V9.15
						v-2h-2h-11.99h-2v2v1.29c-0.24-0.02-0.47-0.04-0.71-0.05V2.07V0.07L183.31,0.07z M159.37,20.49l0.43-0.06l2.9-0.41
						c2.91-0.41,6.04-0.67,9.32-0.77l2.47-0.08l0.84-0.03l0.84,0.03l2.47,0.08c3.27,0.1,6.41,0.36,9.32,0.77l2.9,0.41l0.43,0.06
						l1.19,0.28l1.96,0.47c24.77,5.89,37.19,24.38,39.09,58.18l0.25,6.79c0.01,0.62,0.02,1.22,0.03,1.8H116.85
						c0.01-0.58,0.02-1.18,0.03-1.79l0.25-6.81c1.89-33.78,14.32-52.28,39.09-58.17l1.96-0.47L159.37,20.49L159.37,20.49z"/>
				</g>
			</g>
			<g>
				<g>
					<path class="st4" d="M175.32,173.66c-34.57,0-62.7-28.13-62.7-62.7V95.65h125.4v15.31
						C238.02,145.53,209.89,173.66,175.32,173.66z M119.71,110.96c0,30.66,24.94,55.6,55.6,55.6s55.6-24.94,55.6-55.6v-8.22H119.71
						V110.96z"/>
					<path class="st4" d="M237.02,96.64v14.31c0,34.02-27.68,61.7-61.7,61.7s-61.7-27.68-61.7-61.7V96.64H237.02 M175.32,167.56
						c31.21,0,56.6-25.39,56.6-56.6v-9.22H118.71v9.22C118.71,142.17,144.11,167.56,175.32,167.56 M239.02,94.64h-2h-123.4h-2v2
						v14.31c0,35.12,28.58,63.7,63.7,63.7c35.12,0,63.7-28.57,63.7-63.7V96.64V94.64L239.02,94.64z M120.71,103.74h109.21v7.22
						c0,30.11-24.49,54.6-54.6,54.6c-30.11,0-54.6-24.49-54.6-54.6V103.74L120.71,103.74z"/>
				</g>
			</g>
		</g>
		<g>
			<g>
				<polygon class="st7" points="112.59,79.19 100.08,79.19 100.08,86.08 112.33,86.08 195.47,86.08 195.47,79.19 				"/>
			</g>
			<g>
				<path class="st8" d="M112.33,86.08c-0.02,1.35-0.04,2.71-0.04,4.05c0,0.82,0.03,1.62,0.06,2.43h83.11v-6.47H112.33z"/>
			</g>
			<g>
				<path class="st8" d="M195.47,49.82h-6.9V15.52c-3.08-0.43-6.34-0.7-9.8-0.81v35.12h-6.9V14.7c-3.46,0.11-6.73,0.38-9.8,0.81
					v34.31h-6.9V16.81c-32.78,7.79-41.07,35.38-42.58,62.38h82.88V49.82z"/>
			</g>
			<g>
				<polygon class="st9" points="112.59,79.19 100.08,79.19 100.08,86.08 112.33,86.08 195.47,86.08 195.47,79.19 				"/>
			</g>
			<g>
				<polygon class="st9" points="155.17,11.7 155.17,16.81 155.17,49.82 162.07,49.82 162.07,15.52 162.07,11.7 				"/>
			</g>
			<g>
				<polygon class="st9" points="188.57,11.7 188.57,15.52 188.57,49.82 195.47,49.82 195.47,16.81 195.47,11.7 				"/>
			</g>
			<g>
				<polygon class="st9" points="171.87,4.61 171.87,14.7 171.87,49.82 178.77,49.82 178.77,14.7 178.77,4.61 				"/>
			</g>
			<g>
				<polygon class="st7" points="238.05,79.19 207.64,79.19 207.64,86.08 238.3,86.08 250.56,86.08 250.56,79.19 				"/>
			</g>
			<g>
				<polygon class="st9" points="238.05,79.19 207.64,79.19 207.64,86.08 238.3,86.08 250.56,86.08 250.56,79.19 				"/>
			</g>
			<g>
				<path class="st0" d="M238.3,86.08h-30.66v-6.9h30.41c-1.51-26.99-9.81-54.58-42.58-62.38v33.01v29.36v6.9v6.47h42.81
					c0.03-0.8,0.06-1.6,0.06-2.43C238.34,88.79,238.32,87.44,238.3,86.08z"/>
			</g>
			<g>
				<path class="st4" d="M175.32,160.66c27.41,0,49.7-22.3,49.7-49.7V99.19H183.4v20.29h-9.45V99.19h-48.34v11.77
					C125.61,138.37,147.91,160.66,175.32,160.66z"/>
			</g>
			<g>
				<path class="st9" d="M229.75,99.19v11.77c0,30.06-24.37,54.43-54.43,54.43c-30.06,0-54.43-24.37-54.43-54.43V99.19h-4.72v11.77
					c0,32.62,26.54,59.15,59.15,59.15c32.62,0,59.15-26.54,59.15-59.15V99.19H229.75z"/>
			</g>
			<g>
				<path class="st9" d="M225.02,110.96c0,27.41-22.3,49.7-49.7,49.7c-27.41,0-49.71-22.3-49.71-49.7V99.19h-4.72v11.77
					c0,30.06,24.37,54.43,54.43,54.43c30.06,0,54.43-24.37,54.43-54.43V99.19h-4.72V110.96z"/>
			</g>
			<g>
				<rect x="173.95" y="99.19" class="st9" width="9.45" height="20.29"/>
			</g>
		</g>
	</g>
</g>
</svg>
