<?xml version="1.0" encoding="UTF-8"?><svg id="Layer_1" xmlns="http://www.w3.org/2000/svg" viewBox="0 0 345.72 297.2"><defs><style>.cls-1{fill:#8ab7e9;}.cls-2{fill:#fff;}.cls-3{stroke:#0075a9;stroke-width:4.19px;}.cls-3,.cls-4{fill:none;stroke-miterlimit:10;}.cls-5{fill:#0075a9;}.cls-4{stroke:#fff;stroke-width:8.39px;}.cls-6{fill:#282d33;}</style></defs><circle class="cls-3" cx="172.86" cy="142.2" r="133.91"/><path class="cls-4" d="M303.51,154.84c-20.96,0-38.01,17.05-38.01,38.01,0,.84,.07,1.67,.13,2.49l-34.32,5.72c-7.43-34.05-37.79-59.63-74.04-59.63-13.13,0-25.49,3.36-36.27,9.26l-37.62-59.27c11.32-8.96,18.61-22.81,18.61-38.34,0-26.96-21.93-48.9-48.9-48.9S4.19,26.13,4.19,53.09s21.93,48.89,48.9,48.89c7.84,0,15.24-1.86,21.81-5.15l37.62,59.27c-18.81,13.8-31.04,36.06-31.04,61.12,0,41.79,34,75.79,75.79,75.79s75.79-34,75.79-75.79c0-2.95-.19-5.86-.52-8.72l34.32-5.72c4.38,16.15,19.13,28.08,36.65,28.08,20.96,0,38.01-17.05,38.01-38.01s-17.05-38.01-38.01-38.01Z"/><g><circle class="cls-2" cx="53.09" cy="53.09" r="40.07"/><circle class="cls-2" cx="303.51" cy="192.85" r="32.12"/><circle class="cls-2" cx="157.27" cy="217.22" r="69.01"/><path class="cls-6" d="M157.27,141.44c41.79,0,75.79,34,75.79,75.79s-34,75.79-75.79,75.79-75.79-34-75.79-75.79,34-75.79,75.79-75.79Zm0,141.53c36.25,0,65.74-29.49,65.74-65.74s-29.49-65.74-65.74-65.74-65.74,29.49-65.74,65.74,29.49,65.74,65.74,65.74Z"/><circle class="cls-5" cx="157.27" cy="217.22" r="54.06"/><g><path class="cls-2" d="M157.02,261.54c-15.99,0-30.76-8.02-39.49-21.44l8.42-5.48c6.87,10.56,18.48,16.87,31.06,16.87,7.67,0,15.02-2.32,21.26-6.71l5.78,8.22c-7.95,5.59-17.3,8.54-27.04,8.54Z"/><path class="cls-2" d="M196.41,240.25l-8.4-5.51c3.95-6.02,6.03-13.03,6.03-20.26h10.05c0,9.2-2.66,18.11-7.68,25.77Z"/></g><path class="cls-6" d="M53.09,4.19c26.96,0,48.9,21.94,48.9,48.9s-21.93,48.89-48.9,48.89S4.19,80.05,4.19,53.09,26.13,4.19,53.09,4.19Zm0,86.49c20.73,0,37.59-16.86,37.59-37.59S73.82,15.5,53.09,15.5,15.5,32.36,15.5,53.09s16.86,37.59,37.59,37.59Z"/><circle class="cls-1" cx="53.09" cy="53.09" r="28.52"/><path class="cls-6" d="M303.51,154.84c20.96,0,38.01,17.05,38.01,38.01s-17.05,38.01-38.01,38.01-38.01-17.05-38.01-38.01,17.05-38.01,38.01-38.01Zm0,67.23c16.11,0,29.22-13.11,29.22-29.22s-13.11-29.22-29.22-29.22-29.22,13.11-29.22,29.22,13.11,29.22,29.22,29.22Z"/><circle class="cls-1" cx="303.51" cy="192.85" r="21.62"/><rect class="cls-6" x="227.74" y="198.14" width="42.9" height="7.53" transform="translate(-29.8 43.71) rotate(-9.46)"/><rect class="cls-6" x="92.78" y="83.34" width="10.05" height="80.41" transform="translate(-50.98 71.65) rotate(-32.4)"/></g></svg>