<?xml version="1.0" encoding="UTF-8"?><svg id="Layer_1" xmlns="http://www.w3.org/2000/svg" viewBox="0 0 301.81 339.84"><defs><style>.cls-1{fill:#8ab7e9;}.cls-2{fill:#fff;}.cls-3{fill:#0075a9;}.cls-4{fill:none;}.cls-5{fill:#282d33;}</style></defs><g><path class="cls-3" d="M208.99,287.43l1.91,1.91c12.79-5.56,24.66-12.84,35.33-21.55l-3.31-3.31c-10.78,8.75-22.81,16-35.8,21.43,.66,.45,1.29,.94,1.87,1.52Z"/><path class="cls-3" d="M250.81,257.58l3.29,3.29c9.28-8.71,17.45-18.58,24.3-29.38h-5.52c-6.32,9.54-13.74,18.29-22.06,26.09Z"/><path class="cls-3" d="M28.94,231.49h-5.52c6.85,10.8,15.02,20.66,24.3,29.38l3.29-3.29c-8.32-7.8-15.74-16.55-22.06-26.09Z"/><path class="cls-3" d="M94.7,285.91c-12.99-5.43-25.02-12.68-35.8-21.43l-3.31,3.31c10.66,8.71,22.54,15.98,35.33,21.55l1.91-1.91c.58-.58,1.21-1.07,1.87-1.52Z"/><path class="cls-3" d="M150.91,297.16c-7.73,0-15.33-.61-22.74-1.78,1.11,1.47,1.88,3.17,2.29,5.01,6.69,.91,13.51,1.42,20.45,1.42s13.76-.51,20.45-1.42c.4-1.83,1.18-3.54,2.29-5.01-7.41,1.16-15,1.78-22.74,1.78Z"/><path class="cls-3" d="M4.65,150.91C4.65,70.26,70.26,4.65,150.91,4.65s146.25,65.61,146.25,146.25c0,15.61-2.48,30.65-7.04,44.77h4.91c4.41-14.15,6.78-29.19,6.78-44.77C301.81,67.7,234.12,0,150.91,0S0,67.7,0,150.91c0,15.58,2.38,30.62,6.78,44.77h4.91c-4.55-14.12-7.04-29.16-7.04-44.77Z"/><path class="cls-3" d="M17.21,220.76c.04,.08,.09,.17,.13,.25h5.26c-1.95-3.55-3.73-7.21-5.39-10.93v10.68Z"/><path class="cls-3" d="M279.22,221.02h5.26c.04-.09,.09-.17,.13-.26v-10.68c-1.66,3.73-3.44,7.38-5.39,10.94Z"/></g><g><path class="cls-3" d="M35.43,176.88c-.05,2.48-.07,4.96-.07,7.42,0,1.51,.06,2.98,.11,4.45H187.85v-11.86H35.43Z"/><path class="cls-3" d="M187.85,110.4h-12.65V47.5c-5.64-.79-11.63-1.29-17.97-1.49V110.4h-12.65V46.01c-6.34,.2-12.33,.7-17.97,1.49v62.9h-12.65V49.87c-60.09,14.29-75.3,64.87-78.07,114.36H187.85v-53.84Z"/><polygon class="cls-5" points="35.9 164.23 12.96 164.23 12.96 176.88 35.43 176.88 187.85 176.88 187.85 164.23 35.9 164.23"/><polygon class="cls-5" points="113.97 40.5 113.97 49.87 113.97 110.4 126.61 110.4 126.61 47.5 126.61 40.5 113.97 40.5"/><polygon class="cls-5" points="175.2 40.5 175.2 47.5 175.2 110.4 187.85 110.4 187.85 49.87 187.85 40.5 175.2 40.5"/><polygon class="cls-5" points="144.58 27.51 144.58 46.01 144.58 110.4 157.23 110.4 157.23 46.01 157.23 27.51 144.58 27.51"/><polygon class="cls-5" points="265.92 164.23 210.17 164.23 210.17 176.88 266.38 176.88 288.85 176.88 288.85 164.23 265.92 164.23"/><path class="cls-1" d="M266.38,176.88h-56.21v-12.65h55.75c-2.77-49.49-17.98-100.07-78.07-114.36V188.74h78.49c.06-1.47,.11-2.94,.11-4.45,0-2.46-.03-4.93-.07-7.42Z"/><path class="cls-4" d="M150.91,234.69c18.62,0,33.78-15.15,33.78-33.78H117.13c0,18.63,15.15,33.78,33.78,33.78Z"/><path class="cls-2" d="M48.64,213.61c8.85,0,16.65,5.69,19.4,14.15,1.41,4.34,3.18,8.61,5.27,12.7,4.07,7.95,2.59,17.51-3.68,23.78l-17,17,17.95,17.95,17-17c6.27-6.27,15.83-7.75,23.78-3.68,4.08,2.08,8.35,3.86,12.7,5.27,8.46,2.74,14.15,10.54,14.15,19.4v24.02h25.39v-24.02c0-8.86,5.69-16.65,14.15-19.4,4.34-1.41,8.62-3.18,12.7-5.27,7.95-4.07,17.5-2.58,23.77,3.68l17,17,17.96-17.95-17-17c-6.27-6.27-7.76-15.83-3.68-23.78,2.09-4.08,3.86-8.35,5.27-12.7,2.75-8.47,10.55-14.15,19.4-14.15h24.02v-12.7h-79.87c0,25.6-20.82,46.43-46.42,46.43s-46.42-20.83-46.42-46.43H24.62v12.7h24.02Z"/><path class="cls-5" d="M150.91,247.34c25.6,0,46.42-20.83,46.42-46.43h-12.65c0,18.63-15.15,33.78-33.78,33.78s-33.78-15.15-33.78-33.78h-12.65c0,25.6,20.82,46.43,46.42,46.43Z"/><path class="cls-5" d="M48.64,226.25c3.36,0,6.32,2.17,7.37,5.41,1.61,4.98,3.65,9.87,6.04,14.55,1.56,3.05,1.01,6.7-1.37,9.08l-25.94,25.94,35.84,35.84,25.94-25.94c2.38-2.38,6.03-2.92,9.08-1.37,4.67,2.39,9.57,4.42,14.56,6.04,3.23,1.05,5.41,4.01,5.41,7.37v36.67h50.68v-36.67c0-3.36,2.17-6.32,5.41-7.37,4.98-1.62,9.88-3.65,14.56-6.04,3.05-1.56,6.7-1.01,9.07,1.37l25.94,25.94,35.84-35.84-25.94-25.94c-2.38-2.38-2.93-6.02-1.37-9.07,2.39-4.67,4.42-9.57,6.04-14.55,1.05-3.24,4.01-5.41,7.37-5.41h36.67v-25.34h-12.65v12.7h-24.02c-8.85,0-16.65,5.69-19.4,14.15-1.41,4.35-3.18,8.62-5.27,12.7-4.07,7.95-2.59,17.51,3.68,23.78l17,17-17.96,17.95-17-17c-6.27-6.26-15.82-7.75-23.77-3.68-4.08,2.09-8.36,3.86-12.7,5.27-8.47,2.74-14.15,10.54-14.15,19.4v24.02h-25.39v-24.02c0-8.86-5.69-16.65-14.15-19.4-4.35-1.41-8.62-3.19-12.7-5.27-7.95-4.07-17.5-2.59-23.78,3.68l-17,17-17.95-17.95,17-17c6.27-6.27,7.75-15.83,3.68-23.78-2.09-4.09-3.86-8.36-5.27-12.7-2.75-8.47-10.54-14.15-19.4-14.15H24.62v-12.7H11.97v25.34H48.64Z"/></g></svg>