<?xml version="1.0" encoding="UTF-8"?><svg id="Layer_1" xmlns="http://www.w3.org/2000/svg" xmlns:xlink="http://www.w3.org/1999/xlink" viewBox="0 0 393.59 341.3"><defs><style>.cls-1{fill:#8ab7e9;}.cls-2{fill:#0075a9;}.cls-3{clip-path:url(#clippath-1);}.cls-4{fill:#005487;stroke:#005487;stroke-miterlimit:10;stroke-width:3.26px;}.cls-5{clip-path:url(#clippath);}.cls-6{fill:none;}</style><clipPath id="clippath"><path class="cls-6" d="M196.3,24.02c-80.98,0-146.63,65.65-146.63,146.63s65.65,146.63,146.63,146.63,146.63-65.65,146.63-146.63S277.28,24.02,196.3,24.02Zm0,206.27c-32.94,0-59.64-26.7-59.64-59.64s26.7-59.64,59.64-59.64,59.64,26.7,59.64,59.64-26.7,59.64-59.64,59.64Z"/></clipPath><clipPath id="clippath-1"><rect class="cls-6" x="49.75" y="24.02" width="293.18" height="146.63"/></clipPath></defs><path class="cls-4" d="M196.3,339.67c-93.2,0-169.02-75.82-169.02-169.02S103.1,1.63,196.3,1.63s169.02,75.82,169.02,169.02-75.82,169.02-169.02,169.02Zm0-332.83C105.97,6.84,32.49,80.33,32.49,170.65s73.48,163.81,163.81,163.81,163.81-73.48,163.81-163.81S286.62,6.84,196.3,6.84Z"/><circle class="cls-1" cx="196.3" cy="170.65" r="40.45"/><g class="cls-5"><g class="cls-3"><polygon class="cls-2" points="211.13 170.65 393.59 170.65 279.78 24.02 196.3 170.65 211.13 170.65"/><polygon class="cls-2" points="182.46 170.65 0 170.65 113.81 24.02 194.69 170.65 182.46 170.65"/></g><polygon class="cls-2" points="195.94 171.38 110.7 322.2 282.74 327.11 195.94 171.38 195.94 171.38"/></g></svg>