<?xml version="1.0" encoding="UTF-8"?><svg id="Layer_1" xmlns="http://www.w3.org/2000/svg" viewBox="0 0 349.13 320.1"><defs><style>.cls-1{fill:#8ab7e9;}.cls-2{fill:#fff;}.cls-3{fill:#005487;}.cls-4{fill:#0075a9;}.cls-5{fill:#282d33;}</style></defs><path class="cls-3" d="M174.57,317.56c-87.55,0-158.78-71.23-158.78-158.78S87.01,0,174.57,0s158.78,71.23,158.78,158.78-71.23,158.78-158.78,158.78Zm0-312.66C89.71,4.9,20.68,73.93,20.68,158.78s69.03,153.88,153.88,153.88,153.88-69.03,153.88-153.88S259.42,4.9,174.57,4.9Z"/><g><g><g><path class="cls-4" d="M16.27,242.85h61.13v-74.79H16.27c-6.28,0-11.38,5.09-11.38,11.38v52.04c0,6.28,5.09,11.38,11.38,11.38Z"/><path class="cls-2" d="M82.3,247.75H16.27c-8.97,0-16.27-7.3-16.27-16.27v-52.04c0-8.97,7.3-16.27,16.27-16.27H82.3v84.58ZM16.27,172.95c-3.57,0-6.48,2.91-6.48,6.48v52.04c0,3.57,2.91,6.48,6.48,6.48h56.23v-65H16.27Z"/></g><g><path class="cls-4" d="M332.86,168.06h-61.13v74.79h61.13c6.28,0,11.38-5.09,11.38-11.38v-52.04c0-6.28-5.09-11.38-11.38-11.38Z"/><path class="cls-2" d="M332.86,247.75h-66.02v-84.58h66.02c8.97,0,16.27,7.3,16.27,16.27v52.03c0,8.97-7.3,16.27-16.27,16.27Zm-56.23-9.79h56.23c3.57,0,6.48-2.91,6.48-6.48v-52.03c0-3.57-2.91-6.48-6.48-6.48h-56.23v65Z"/></g></g><path class="cls-4" d="M222.41,168.06c-5.84-9.24-14.19-16.73-24.1-21.51v-14.31h-50.62v14.31c-9.91,4.77-18.26,12.27-24.1,21.51h-12.45v74.79h23.02c10.32,9.2,23.92,14.79,38.84,14.79s28.51-5.6,38.84-14.79h23.02v-74.79h-12.45Z"/><g><polygon class="cls-1" points="74.26 153.74 74.26 168.06 74.26 242.85 74.26 257.17 111.14 257.17 111.14 242.85 111.14 168.06 111.14 153.74 74.26 153.74"/><path class="cls-3" d="M116.25,262.28h-47.1v-113.64h47.1v113.64Zm-36.88-10.22h26.66v-93.2h-26.66v93.2Z"/></g><rect class="cls-5" x="167.89" y="68.52" width="10.22" height="33.94"/><rect class="cls-5" x="134.8" y="62.28" width="76.39" height="10.22"/><path class="cls-3" d="M173,45.02c-8.3,0-15.39,5.1-18.35,12.34h36.7c-2.96-7.23-10.05-12.34-18.35-12.34Z"/><g><polygon class="cls-1" points="130 102.45 130 132.24 147.69 132.24 198.3 132.24 215.99 132.24 215.99 102.45 130 102.45"/><path class="cls-3" d="M221.1,137.35H124.89v-40.01h96.2v40.01Zm-85.98-10.22h75.76v-19.57h-75.76v19.57Z"/></g><g><polygon class="cls-1" points="234.85 153.74 234.85 168.06 234.85 242.85 234.85 257.17 271.73 257.17 271.73 242.85 271.73 168.06 271.73 153.74 234.85 153.74"/><path class="cls-3" d="M276.84,262.28h-47.1v-113.64h47.1v113.64Zm-36.88-10.22h26.66v-93.2h-26.66v93.2Z"/></g><path class="cls-2" d="M173,244.53c-14.84,0-28.76-7.28-37.24-19.48l8.39-5.83c6.57,9.45,17.35,15.1,28.85,15.1,8.45,0,16.62-3.05,22.99-8.58l6.7,7.72c-8.23,7.14-18.78,11.08-29.69,11.08Z"/><path class="cls-2" d="M209.53,226.05l-8.23-6.06c2.75-3.74,4.7-7.9,5.8-12.39l9.93,2.44c-1.42,5.8-3.94,11.19-7.49,16.02Z"/></g></svg>