<?xml version="1.0" encoding="UTF-8"?><svg id="Layer_1" xmlns="http://www.w3.org/2000/svg" viewBox="0 0 337.42 345.11"><defs><style>.cls-1{fill:#8ab7e9;}.cls-2{fill:#fff;}.cls-3{fill:#0075a9;}.cls-4{stroke:#282d33;stroke-width:5.2px;}.cls-4,.cls-5{fill:none;stroke-miterlimit:10;}.cls-5{stroke:#fff;stroke-width:10.4px;}.cls-6{fill:#282d33;}</style></defs><circle class="cls-4" cx="168.71" cy="168.71" r="166.11"/><path class="cls-5" d="M269.28,321.55l-25.8-87.18-28.69-96.95L181.7,25.58c-4.22-12.4-21.76-12.4-25.97,0l-33.1,111.85-28.69,96.95-25.8,87.18H34.66v18.35H302.76v-18.35h-33.48Z"/><g><polygon class="cls-3" points="65.43 330.73 271.99 330.73 243.48 234.38 93.94 234.38 65.43 330.73"/><path class="cls-3" d="M181.7,25.58c-4.22-12.4-21.76-12.4-25.97,0l-33.1,111.85h92.17L181.7,25.58Z"/><polygon class="cls-1" points="122.63 137.43 93.94 234.38 243.48 234.38 214.79 137.43 122.63 137.43"/><rect class="cls-6" x="34.66" y="321.55" width="268.1" height="18.35"/><rect class="cls-2" x="220.49" y="249.78" width="18.35" height="33.44" transform="translate(-64.95 74.23) rotate(-16.12)"/><rect class="cls-2" x="192.9" y="105.05" width="18.35" height="131.92" transform="translate(-39.53 62.81) rotate(-16.11)"/></g></svg>