<svg xmlns="http://www.w3.org/2000/svg" width="24" height="24"><g fill="none" fill-rule="evenodd"><path fill="#E89841" d="M12.304 15.77l3.39 5.111a3.604 3.604 0 0 0 2.653 1.6 3.603 3.603 0 0 0 2.918-1.041 3.603 3.603 0 0 0 1.042-2.918 3.603 3.603 0 0 0-1.6-2.654l-5.112-3.39a8.889 8.889 0 0 1-.42.68c-.3.44-.633.845-.99 1.202a8.29 8.29 0 0 1-1.88 1.41m6.408 7.455a4.327 4.327 0 0 1-3.624-1.943l-3.613-5.448a.363.363 0 0 1 .144-.527 7.555 7.555 0 0 0 2.052-1.46c.324-.325.628-.694.903-1.098a7.63 7.63 0 0 0 .557-.955.364.364 0 0 1 .528-.144l5.448 3.613a4.326 4.326 0 0 1 1.92 3.186 4.326 4.326 0 0 1-1.25 3.504 4.324 4.324 0 0 1-3.065 1.272"/><path d="M0 .181h16.615v16.605H0z"/><path fill="#E89841" d="M8.305.907a7.57 7.57 0 0 0-5.81 2.719 7.56 7.56 0 0 0 0 9.72c.155.185.304.349.456.501a7.58 7.58 0 0 0 1.698 1.272 7.51 7.51 0 0 0 2.835.897 7.649 7.649 0 0 0 4.136-.709 7.571 7.571 0 0 0 2.052-1.46c.324-.325.628-.694.903-1.098.218-.321.406-.642.558-.955a7.591 7.591 0 0 0-.558-7.571 7.521 7.521 0 0 0-3.58-2.826 7.633 7.633 0 0 0-2.69-.49m.002 15.88c-.301 0-.602-.017-.902-.05a8.232 8.232 0 0 1-3.107-.983 8.301 8.301 0 0 1-1.86-1.394 8.338 8.338 0 0 1-.5-.548 8.285 8.285 0 0 1 0-10.652 8.317 8.317 0 0 1 2.36-1.947A8.246 8.246 0 0 1 7.405.23a8.355 8.355 0 0 1 3.847.487 8.243 8.243 0 0 1 3.922 3.097 8.318 8.318 0 0 1 .612 8.297 8.348 8.348 0 0 1-.611 1.047c-.3.44-.633.845-.99 1.202a8.288 8.288 0 0 1-2.249 1.6 8.35 8.35 0 0 1-3.63.826"/><path fill="#E89841" d="M8.313 5.01c-.762 0-1.382.62-1.382 1.382 0 .761.62 1.381 1.382 1.381.762 0 1.382-.62 1.382-1.381 0-.762-.62-1.382-1.382-1.382m0 3.126a1.747 1.747 0 0 1-1.745-1.744c0-.963.783-1.745 1.745-1.745.962 0 1.745.782 1.745 1.745 0 .962-.783 1.744-1.745 1.744m0 .51a4.172 4.172 0 0 1 3.837 2.528 4.672 4.672 0 0 0-.525-6.001 4.7 4.7 0 0 0-.607-.505 4.705 4.705 0 0 0-3.541-.79 4.655 4.655 0 0 0-2.479 1.295 4.68 4.68 0 0 0-.382.438 4.67 4.67 0 0 0-.139 5.562 4.171 4.171 0 0 1 3.836-2.527m3.784 3.08c-.01 0-.021 0-.032-.003a.181.181 0 0 1-.14-.12 3.809 3.809 0 0 0-3.612-2.594 3.81 3.81 0 0 0-3.61 2.591.18.18 0 0 1-.314.056l-.059-.072a5.032 5.032 0 0 1 0-6.196 5.04 5.04 0 0 1 .412-.472 5.019 5.019 0 0 1 2.67-1.395 5.074 5.074 0 0 1 3.817.85 5.034 5.034 0 0 1 1.01 7.287.181.181 0 0 1-.142.068"/><path fill="#E89841" d="M8.313 5.01c-.762 0-1.382.62-1.382 1.382 0 .761.62 1.381 1.382 1.381.762 0 1.382-.62 1.382-1.381 0-.762-.62-1.382-1.382-1.382m0 3.126a1.747 1.747 0 0 1-1.745-1.744c0-.963.783-1.745 1.745-1.745.962 0 1.745.782 1.745 1.745 0 .962-.783 1.744-1.745 1.744m-.836 4.958a4.707 4.707 0 0 0 3.542-.79 4.678 4.678 0 0 0 .873-.796 3.809 3.809 0 0 0-3.579-2.499 3.81 3.81 0 0 0-3.578 2.498c.096.115.179.208.263.292a4.655 4.655 0 0 0 2.479 1.295m.822.436a5.018 5.018 0 0 1-3.557-1.475 4.848 4.848 0 0 1-.353-.4.182.182 0 0 1-.03-.17 4.171 4.171 0 0 1 3.954-2.839 4.172 4.172 0 0 1 3.956 2.84.182.182 0 0 1-.03.173 5.007 5.007 0 0 1-1.01.941 5.074 5.074 0 0 1-2.93.93"/></g></svg>