<svg xmlns="http://www.w3.org/2000/svg" width="15" height="21"><g fill="#343B45" fill-rule="evenodd"><path d="M7.445 3.82a3.63 3.63 0 0 0-3.626 3.625 3.63 3.63 0 0 0 3.626 3.625 3.629 3.629 0 0 0 3.625-3.625c0-2-1.626-3.626-3.625-3.626m0 7.582a3.96 3.96 0 0 1-3.957-3.956 3.96 3.96 0 0 1 3.957-3.957A3.96 3.96 0 0 1 11.4 7.445 3.96 3.96 0 0 1 7.445 11.4"/><path d="M7.445.661A6.79 6.79 0 0 0 .66 7.445c0 3.35 5.505 10.952 6.784 12.673 1.279-1.72 6.783-9.322 6.783-12.673A6.79 6.79 0 0 0 7.445.66m0 20.339a.33.33 0 0 1-.263-.13C6.89 20.487 0 11.44 0 7.445 0 3.34 3.34 0 7.445 0s7.444 3.34 7.444 7.445C14.89 11.44 8 20.487 7.707 20.87a.33.33 0 0 1-.262.13"/></g></svg>