<svg xmlns="http://www.w3.org/2000/svg" width="21" height="22"><g fill="none" fill-rule="evenodd"><path d="M0 .89h20.995v21H0z"/><path fill="#303C42" d="M3.458 1.551c-.15 0-.29.058-.396.164-3.203 3.204-3.201 8.419.004 11.623l5.483 5.483a8.166 8.166 0 0 0 5.812 2.407 8.16 8.16 0 0 0 5.81-2.407.56.56 0 0 0 0-.79l-3.59-3.59a.571.571 0 0 0-.79 0l-1.16 1.158a2.751 2.751 0 0 1-1.958.812 2.75 2.75 0 0 1-1.959-.812l-4.428-4.427a2.774 2.774 0 0 1 0-3.918l1.157-1.159a.555.555 0 0 0 0-.79l-3.59-3.59a.556.556 0 0 0-.395-.164M14.36 21.89a8.823 8.823 0 0 1-6.28-2.601l-5.483-5.483C-.865 10.344-.866 4.71 2.595 1.247c.23-.23.537-.357.863-.357.326 0 .632.127.862.357l3.59 3.59c.231.23.358.537.358.863 0 .326-.127.632-.357.863L6.753 7.72a2.112 2.112 0 0 0 0 2.983l4.429 4.428c.398.398.928.617 1.491.617.563 0 1.093-.219 1.491-.617l1.158-1.159c.23-.23.537-.357.863-.357.326 0 .632.127.863.357l3.59 3.59a1.22 1.22 0 0 1 0 1.725 8.819 8.819 0 0 1-6.277 2.602"/><path d="M10.564.89h10.432v10.429H10.564z"/><path fill="#303C42" d="M11.363 7.455l3.066 3.066 3.66-3.66a.33.33 0 0 1 .469 0l1.102 1.101.265-2.656.37-3.716-6.373.636 1.102 1.101a.331.331 0 0 1 0 .468l-3.661 3.66zm3.066 3.864a.33.33 0 0 1-.234-.097L10.661 7.69a.331.331 0 0 1 0-.468l3.661-3.66L12.96 2.2a.331.331 0 0 1 .201-.563L20.632.89a.331.331 0 0 1 .362.362l-.745 7.47a.33.33 0 0 1-.563.2l-1.362-1.361-3.661 3.66a.33.33 0 0 1-.234.097zM7.032 7.14a.164.164 0 0 1-.117-.048L2.097 2.283a.165.165 0 0 1 .233-.234l4.82 4.809a.165.165 0 0 1-.117.282m12.752 12.643a.164.164 0 0 1-.115-.047l-4.91-4.728a.165.165 0 1 1 .229-.238l4.91 4.728a.165.165 0 0 1-.114.285"/></g></svg>