<svg xmlns="http://www.w3.org/2000/svg" width="21" height="14"><g fill="#343B45" fill-rule="evenodd"><path d="M.661 13.28H20.34V.661H.66v12.62zm20.008.662H.331A.33.33 0 0 1 0 13.61V.33A.33.33 0 0 1 .33 0h20.34a.33.33 0 0 1 .33.33v13.28a.33.33 0 0 1-.33.332z"/><path d="M.496.705V13.27l7.379-5.836L.496.705zM.331 13.776a.165.165 0 0 1-.165-.165V.33A.165.165 0 0 1 .441.209l7.8 7.11a.165.165 0 0 1-.01.252l-7.799 6.17a.166.166 0 0 1-.102.035z"/><path d="M13.107 7.426l7.397 5.85V.682l-7.397 6.744zm7.562 6.35H.331a.165.165 0 0 1 0-.33h19.854l-7.436-5.882a.165.165 0 0 1-.008-.252L20.532.21a.166.166 0 0 1 .112-.044h.025c.092 0 .166.074.166.166v13.28a.165.165 0 0 1-.166.165z"/><path d="M.806 13.446h19.379L12.86 7.652l-2.261 2.06a.165.165 0 0 1-.223 0L8.123 7.659.806 13.446zm19.854.33H.33a.165.165 0 0 1-.102-.295l7.8-6.17a.165.165 0 0 1 .213.008l2.246 2.048 2.254-2.054a.165.165 0 0 1 .214-.008l7.808 6.176a.165.165 0 0 1-.103.295z"/><path d="M.758.496l9.73 8.87 9.73-8.87H.757zm9.73 9.26a.165.165 0 0 1-.112-.043L.219.453A.165.165 0 0 1 .331.165h20.313a.166.166 0 0 1 .111.288L10.6 9.713a.165.165 0 0 1-.112.043z"/></g></svg>