<svg width="325" height="240" viewBox="0 0 325 240" fill="none" xmlns="http://www.w3.org/2000/svg">
<mask id="mask0_723_6834" style="mask-type:alpha" maskUnits="userSpaceOnUse" x="0" y="0" width="325" height="240">
<rect width="325" height="240" fill="#D9D9D9"/>
</mask>
<g mask="url(#mask0_723_6834)">
<ellipse cx="216.013" cy="216.584" rx="216.013" ry="216.584" transform="matrix(0.959509 0.28168 -0.280059 0.959983 79.3125 -45)" fill="url(#paint0_linear_723_6834)" stroke="#F6F6F6" stroke-width="2"/>
<ellipse cx="51.077" cy="216.584" rx="51.077" ry="216.584" transform="matrix(0.959509 0.28168 -0.280059 0.959983 237.57 1.45947)" stroke="#F6F6F6" stroke-width="2"/>
<ellipse cx="144.718" cy="216.584" rx="144.718" ry="216.584" transform="matrix(0.959509 0.28168 -0.280059 0.959983 147.721 -24.9175)" stroke="#F6F6F6" stroke-width="2"/>
<ellipse cx="63.2147" cy="216.013" rx="63.2147" ry="216.013" transform="matrix(-0.280059 0.959983 -0.959509 -0.28168 450.37 225.717)" stroke="#F6F6F6" stroke-width="2"/>
<ellipse cx="46.695" cy="161.128" rx="46.695" ry="161.128" transform="matrix(-0.280059 0.959983 -0.959509 -0.28168 432.191 91.2217)" stroke="#F6F6F6" stroke-width="2"/>
<ellipse cx="56.2875" cy="194.473" rx="56.2875" ry="194.473" transform="matrix(-0.280059 0.959983 -0.959509 -0.28168 453.133 134.639)" stroke="#F6F6F6" stroke-width="2"/>
<ellipse cx="55.2128" cy="190.741" rx="55.2128" ry="190.741" transform="matrix(-0.280059 0.959983 -0.959509 -0.28168 396.882 317.873)" stroke="#F6F6F6" stroke-width="2"/>
<ellipse cx="61.0809" cy="210.959" rx="61.0809" ry="210.959" transform="matrix(-0.280059 0.959983 -0.959509 -0.28168 457.517 182.225)" stroke="#F6F6F6" stroke-width="2"/>
<ellipse cx="61.0809" cy="210.693" rx="61.0809" ry="210.693" transform="matrix(-0.280059 0.959983 -0.959509 -0.28168 432.417 268.26)" stroke="#F6F6F6" stroke-width="2"/>
<path d="M-4 2H330V240H-4V2Z" fill="url(#paint1_linear_723_6834)"/>
<path d="M142.063 83.6296C142.063 86.6377 139.632 89.0737 136.637 89.0737C133.642 89.0737 131.212 86.6377 131.212 83.6296C131.212 80.6215 133.642 78.1855 136.637 78.1855C139.632 78.1855 142.063 80.6215 142.063 83.6296Z" stroke="#00B451"/>
<path d="M237.167 70.3147C237.167 73.3228 234.737 75.7587 231.742 75.7587C228.747 75.7587 226.316 73.3228 226.316 70.3147C226.316 67.3065 228.747 64.8706 231.742 64.8706C234.737 64.8706 237.167 67.3065 237.167 70.3147Z" stroke="#2ED9FF"/>
<ellipse cx="231.941" cy="70.5048" rx="3.27086" ry="3.28112" fill="#2ED9FF"/>
<ellipse cx="180.584" cy="196.043" rx="3.27086" ry="3.28112" fill="#2ED9FF"/>
<ellipse cx="293.284" cy="166.085" rx="3.27086" ry="3.28112" fill="#2ED9FF"/>
<path d="M185.811 195.853C185.811 198.861 183.38 201.297 180.385 201.297C177.391 201.297 174.96 198.861 174.96 195.853C174.96 192.845 177.391 190.409 180.385 190.409C183.38 190.409 185.811 192.845 185.811 195.853Z" stroke="#2ED9FF"/>
<path d="M298.51 165.895C298.51 168.903 296.08 171.339 293.085 171.339C290.09 171.339 287.659 168.903 287.659 165.895C287.659 162.887 290.09 160.451 293.085 160.451C296.08 160.451 298.51 162.887 298.51 165.895Z" stroke="#2ED9FF"/>
<ellipse cx="136.836" cy="83.8197" rx="3.27086" ry="3.28112" fill="#00B451"/>
</g>
<defs>
<linearGradient id="paint0_linear_723_6834" x1="101.966" y1="432.983" x2="400.486" y2="63.5961" gradientUnits="userSpaceOnUse">
<stop stop-color="#101828" stop-opacity="0.15"/>
<stop offset="1" stop-color="#00567D" stop-opacity="0.8"/>
</linearGradient>
<linearGradient id="paint1_linear_723_6834" x1="-4" y1="172.702" x2="266.559" y2="-26.25" gradientUnits="userSpaceOnUse">
<stop stop-color="#002E41" stop-opacity="0.8"/>
<stop offset="1" stop-color="#002E41" stop-opacity="0.5"/>
</linearGradient>
</defs>
</svg>
