<svg width="764" height="858" viewBox="0 0 764 858" fill="none" xmlns="http://www.w3.org/2000/svg">
<mask id="mask0_2158_23607" style="mask-type:alpha" maskUnits="userSpaceOnUse" x="0" y="0" width="764" height="858">
<path d="M0 0H764V858H0V0Z" fill="#081F2D"/>
</mask>
<g mask="url(#mask0_2158_23607)">
<ellipse cx="454.263" cy="455.463" rx="454.263" ry="455.463" transform="matrix(0.959509 0.28168 -0.280059 0.959983 -6.08984 -133)" fill="url(#paint0_linear_2158_23607)"/>
<ellipse cx="107.412" cy="455.463" rx="107.412" ry="455.463" transform="matrix(0.959509 0.28168 -0.280059 0.959983 326.717 -35.2988)" stroke="url(#paint1_linear_2158_23607)" stroke-width="2"/>
<ellipse cx="304.334" cy="455.463" rx="304.334" ry="455.463" transform="matrix(0.959509 0.28168 -0.280059 0.959983 137.768 -90.7676)" stroke="url(#paint2_linear_2158_23607)" stroke-width="2"/>
<ellipse cx="132.937" cy="454.263" rx="132.937" ry="454.263" transform="matrix(-0.280059 0.959983 -0.959509 -0.28168 774.223 436.302)" stroke="#3E5F6E" stroke-width="2"/>
<ellipse cx="98.1967" cy="338.843" rx="98.1967" ry="338.843" transform="matrix(-0.280059 0.959983 -0.959509 -0.28168 735.994 153.466)" stroke="#3E5F6E" stroke-width="2"/>
<ellipse cx="94.7946" cy="327.271" rx="94.7946" ry="327.271" transform="matrix(-0.280059 0.959983 -0.959509 -0.28168 557.582 723.455)" stroke="#3E5F6E" stroke-width="2"/>
<ellipse cx="118.369" cy="408.965" rx="118.369" ry="408.965" transform="matrix(-0.280059 0.959983 -0.959509 -0.28168 780.031 244.771)" stroke="#3E5F6E" stroke-width="2"/>
<ellipse cx="116.109" cy="401.116" rx="116.109" ry="401.116" transform="matrix(-0.280059 0.959983 -0.959509 -0.28168 661.74 630.1)" stroke="#3E5F6E" stroke-width="2"/>
<ellipse cx="128.449" cy="443.634" rx="128.449" ry="443.634" transform="matrix(-0.280059 0.959983 -0.959509 -0.28168 789.25 344.841)" stroke="#3E5F6E" stroke-width="2"/>
<path d="M-134.746 308.006C-155.308 378.487 23.169 492.911 263.893 563.579C504.617 634.248 716.431 634.4 736.992 563.919" stroke="url(#paint3_linear_2158_23607)" stroke-width="2"/>
<path d="M58.2481 56.8424C43.0598 108.905 176.31 193.842 355.87 246.555C535.431 299.268 693.306 299.795 708.494 247.733" stroke="url(#paint4_linear_2158_23607)" stroke-width="2"/>
<path d="M-97.0049 630.085C-111.667 680.344 17.0381 762.359 190.466 813.272C363.894 864.184 516.371 864.715 531.033 814.456" stroke="url(#paint5_linear_2158_23607)" stroke-width="2"/>
<path d="M-37.9294 128.009C-56.2378 190.766 104.606 293.217 321.325 356.838C538.045 420.46 728.572 421.16 746.881 358.403" stroke="url(#paint6_linear_2158_23607)" stroke-width="2"/>
<path d="M-140.527 515.59C-158.486 577.149 -0.729867 677.639 211.831 740.039C424.391 802.44 611.264 803.122 629.223 741.562" stroke="url(#paint7_linear_2158_23607)" stroke-width="2"/>
<path d="M-98.0631 218.225C-117.931 286.327 56.5425 397.482 291.634 466.497C526.725 535.512 733.41 536.252 753.277 468.15" stroke="url(#paint8_linear_2158_23607)" stroke-width="2"/>
<path d="M-149.771 399.466C-169.638 467.568 4.59439 578.652 239.389 647.58C474.184 716.508 680.628 717.178 700.496 649.076" stroke="url(#paint9_linear_2158_23607)" stroke-width="2"/>
<ellipse cx="128.287" cy="442.174" rx="128.287" ry="442.174" transform="matrix(-0.280059 0.959983 -0.959509 -0.28168 736.484 526.104)" stroke="#3E5F6E" stroke-width="2"/>
<path d="M-134.746 308.006C-155.308 378.487 23.169 492.911 263.893 563.579C504.617 634.248 716.431 634.4 736.992 563.919" stroke="url(#paint10_linear_2158_23607)" stroke-width="2"/>
<path d="M58.2462 56.8429C43.0578 108.905 176.308 193.842 355.868 246.555C535.429 299.268 693.304 299.796 708.492 247.733" stroke="url(#paint11_linear_2158_23607)" stroke-width="2"/>
<path d="M-97.0049 630.085C-111.667 680.344 17.0381 762.359 190.466 813.272C363.894 864.184 516.371 864.715 531.033 814.456" stroke="url(#paint12_linear_2158_23607)" stroke-width="2"/>
<path d="M-37.9294 128.009C-56.2378 190.767 104.606 293.217 321.325 356.839C538.045 420.46 728.572 421.161 746.881 358.403" stroke="url(#paint13_linear_2158_23607)" stroke-width="2"/>
<path d="M-140.527 515.59C-158.486 577.149 -0.729867 677.639 211.831 740.039C424.391 802.44 611.264 803.122 629.223 741.562" stroke="url(#paint14_linear_2158_23607)" stroke-width="2"/>
<path d="M-98.0651 218.225C-117.933 286.327 56.5405 397.482 291.632 466.497C526.723 535.512 733.408 536.252 753.275 468.15" stroke="url(#paint15_linear_2158_23607)" stroke-width="2"/>
<path d="M-149.773 399.466C-169.64 467.568 4.59243 578.653 239.387 647.58C474.182 716.508 680.627 717.178 700.494 649.076" stroke="url(#paint16_linear_2158_23607)" stroke-width="2"/>
<ellipse cx="107.412" cy="455.463" rx="107.412" ry="455.463" transform="matrix(0.959509 0.28168 -0.280059 0.959983 326.717 -35.2988)" stroke="url(#paint17_linear_2158_23607)" stroke-width="2"/>
<ellipse cx="304.334" cy="455.463" rx="304.334" ry="455.463" transform="matrix(0.959509 0.28168 -0.280059 0.959983 137.768 -90.7676)" stroke="url(#paint18_linear_2158_23607)" stroke-width="2"/>
<ellipse cx="615.976" cy="695" rx="4.29422" ry="4.30769" fill="#DFCCE0"/>
<circle cx="616" cy="695" r="7.5" stroke="#DFCCE0"/>
<ellipse cx="557.969" cy="615" rx="5.36778" ry="5.38462" fill="#00953B"/>
<circle cx="558" cy="615" r="9.5" stroke="#00953B"/>
<ellipse cx="395.952" cy="491" rx="8.58845" ry="8.61538" fill="#DFCCE0"/>
<circle cx="396" cy="491" r="15.5" stroke="#DFCCE0"/>
<ellipse cx="85.9605" cy="388" rx="6.97811" ry="7" fill="#DFCCE0"/>
<circle cx="86" cy="388" r="12.5" stroke="#DFCCE0"/>
<ellipse cx="618.969" cy="285" rx="5.36778" ry="5.38462" fill="#00953B"/>
<circle cx="619" cy="285" r="9.5" stroke="#00953B"/>
<ellipse cx="286.961" cy="164" rx="6.97811" ry="7" fill="#DFCCE0"/>
<circle cx="287" cy="164" r="12.5" stroke="#DFCCE0"/>
<ellipse cx="225.952" cy="326" rx="8.58845" ry="8.61539" fill="#00ACD8"/>
<circle cx="226" cy="326" r="15.5" stroke="#00ACD8"/>
<ellipse cx="266.961" cy="563" rx="6.97811" ry="7" fill="#00953B"/>
<circle cx="267" cy="563" r="12.5" stroke="#00953B"/>
<ellipse cx="143.969" cy="665" rx="5.36778" ry="5.38462" fill="#DFCCE0"/>
<circle cx="144" cy="665" r="9.5" stroke="#DFCCE0"/>
<ellipse cx="437.976" cy="785" rx="4.29422" ry="4.30769" fill="#00ACD8"/>
<circle cx="438" cy="785" r="7.5" stroke="#00ACD8"/>
</g>
<defs>
<linearGradient id="paint0_linear_2158_23607" x1="214.428" y1="910.537" x2="842.199" y2="133.739" gradientUnits="userSpaceOnUse">
<stop stop-color="#101828" stop-opacity="0.15"/>
<stop offset="1" stop-color="#00567D" stop-opacity="0.8"/>
</linearGradient>
<linearGradient id="paint1_linear_2158_23607" x1="-0.00088351" y1="6.27518e-05" x2="-0.00088351" y2="910.925" gradientUnits="userSpaceOnUse">
<stop stop-color="#3E5F6E"/>
<stop offset="0.520833" stop-color="white"/>
<stop offset="1" stop-color="#3E5F6E"/>
</linearGradient>
<linearGradient id="paint2_linear_2158_23607" x1="-0.00250328" y1="6.27518e-05" x2="-0.00250328" y2="910.925" gradientUnits="userSpaceOnUse">
<stop stop-color="#3E5F6E"/>
<stop offset="0.520833" stop-color="white"/>
<stop offset="1" stop-color="#3E5F6E"/>
</linearGradient>
<linearGradient id="paint3_linear_2158_23607" x1="774.223" y1="436.301" x2="-97.945" y2="181.86" gradientUnits="userSpaceOnUse">
<stop stop-color="#3E5F6E"/>
<stop offset="0.520833" stop-color="white"/>
<stop offset="1" stop-color="#3E5F6E"/>
</linearGradient>
<linearGradient id="paint4_linear_2158_23607" x1="708.494" y1="247.733" x2="57.9278" y2="57.9404" gradientUnits="userSpaceOnUse">
<stop stop-color="#3E5F6E"/>
<stop offset="0.520833" stop-color="white"/>
<stop offset="1" stop-color="#3E5F6E"/>
</linearGradient>
<linearGradient id="paint5_linear_2158_23607" x1="557.582" y1="723.454" x2="-70.766" y2="540.144" gradientUnits="userSpaceOnUse">
<stop stop-color="#3E5F6E"/>
<stop offset="0.520833" stop-color="white"/>
<stop offset="1" stop-color="#3E5F6E"/>
</linearGradient>
<linearGradient id="paint6_linear_2158_23607" x1="746.881" y1="358.402" x2="-38.316" y2="129.334" gradientUnits="userSpaceOnUse">
<stop stop-color="#3E5F6E"/>
<stop offset="0.520833" stop-color="white"/>
<stop offset="1" stop-color="#3E5F6E"/>
</linearGradient>
<linearGradient id="paint7_linear_2158_23607" x1="661.741" y1="630.098" x2="-108.388" y2="405.426" gradientUnits="userSpaceOnUse">
<stop stop-color="#3E5F6E"/>
<stop offset="0.520833" stop-color="white"/>
<stop offset="1" stop-color="#3E5F6E"/>
</linearGradient>
<linearGradient id="paint8_linear_2158_23607" x1="753.277" y1="468.149" x2="-98.4826" y2="219.662" gradientUnits="userSpaceOnUse">
<stop stop-color="#3E5F6E"/>
<stop offset="0.520833" stop-color="white"/>
<stop offset="1" stop-color="#3E5F6E"/>
</linearGradient>
<linearGradient id="paint9_linear_2158_23607" x1="736.47" y1="525.765" x2="-114.216" y2="277.591" gradientUnits="userSpaceOnUse">
<stop stop-color="#3E5F6E"/>
<stop offset="0.520833" stop-color="white"/>
<stop offset="1" stop-color="#3E5F6E"/>
</linearGradient>
<linearGradient id="paint10_linear_2158_23607" x1="774.223" y1="436.301" x2="-97.945" y2="181.86" gradientUnits="userSpaceOnUse">
<stop stop-color="#3E5F6E" stop-opacity="0"/>
<stop offset="0.520833" stop-color="white"/>
<stop offset="0.9999" stop-color="#446473" stop-opacity="0"/>
<stop offset="1" stop-color="#3E5F6E"/>
</linearGradient>
<linearGradient id="paint11_linear_2158_23607" x1="708.492" y1="247.733" x2="57.9258" y2="57.9409" gradientUnits="userSpaceOnUse">
<stop stop-color="#3E5F6E" stop-opacity="0"/>
<stop offset="0.520833" stop-color="white"/>
<stop offset="1" stop-color="#3E5F6E" stop-opacity="0"/>
</linearGradient>
<linearGradient id="paint12_linear_2158_23607" x1="557.582" y1="723.454" x2="-70.766" y2="540.144" gradientUnits="userSpaceOnUse">
<stop stop-color="#3E5F6E" stop-opacity="0"/>
<stop offset="0.520833" stop-color="white"/>
<stop offset="1" stop-color="#3E5F6E" stop-opacity="0"/>
</linearGradient>
<linearGradient id="paint13_linear_2158_23607" x1="746.881" y1="358.403" x2="-38.316" y2="129.334" gradientUnits="userSpaceOnUse">
<stop stop-color="#3E5F6E" stop-opacity="0"/>
<stop offset="0.520833" stop-color="white"/>
<stop offset="1" stop-color="#3E5F6E" stop-opacity="0"/>
</linearGradient>
<linearGradient id="paint14_linear_2158_23607" x1="661.741" y1="630.098" x2="-108.388" y2="405.426" gradientUnits="userSpaceOnUse">
<stop stop-color="#3E5F6E" stop-opacity="0"/>
<stop offset="0.520833" stop-color="white"/>
<stop offset="1" stop-color="#3E5F6E" stop-opacity="0"/>
</linearGradient>
<linearGradient id="paint15_linear_2158_23607" x1="753.275" y1="468.15" x2="-98.4845" y2="219.663" gradientUnits="userSpaceOnUse">
<stop stop-color="#3E5F6E" stop-opacity="0"/>
<stop offset="0.520833" stop-color="white"/>
<stop offset="1" stop-color="#3E5F6E" stop-opacity="0"/>
</linearGradient>
<linearGradient id="paint16_linear_2158_23607" x1="736.468" y1="525.766" x2="-114.218" y2="277.592" gradientUnits="userSpaceOnUse">
<stop stop-color="#3E5F6E" stop-opacity="0"/>
<stop offset="0.520833" stop-color="white"/>
<stop offset="1" stop-color="#3E5F6E" stop-opacity="0"/>
</linearGradient>
<linearGradient id="paint17_linear_2158_23607" x1="-0.00088351" y1="6.27518e-05" x2="-0.00088351" y2="910.925" gradientUnits="userSpaceOnUse">
<stop stop-color="#3E5F6E" stop-opacity="0"/>
<stop offset="0.520833" stop-color="white"/>
<stop offset="1" stop-color="#3E5F6E" stop-opacity="0"/>
</linearGradient>
<linearGradient id="paint18_linear_2158_23607" x1="-0.00250328" y1="6.27518e-05" x2="-0.00250328" y2="910.925" gradientUnits="userSpaceOnUse">
<stop stop-color="#3E5F6E" stop-opacity="0"/>
<stop offset="0.520833" stop-color="white"/>
<stop offset="1" stop-color="#3E5F6E" stop-opacity="0"/>
</linearGradient>
</defs>
</svg>
