<svg id="Layer_1" data-name="Layer 1" xmlns="http://www.w3.org/2000/svg" viewBox="0 0 315.65 150.06"><defs><style>.cls-1{fill:#fff;}</style></defs><path class="cls-1" d="M31.82,116.73l4.88-8.6h1.35l1.42,8.6H38.36l-.42-2.47H34.46l-1.37,2.47ZM35,113.37H37.8l-.33-2.16c-.13-.85-.21-1.57-.24-2.14a18.3,18.3,0,0,1-.86,1.76Z"/><path class="cls-1" d="M43.5,116.73l1.8-8.6h2.59a5.65,5.65,0,0,1,1.42.14,2.7,2.7,0,0,1,1.2.65,2.9,2.9,0,0,1,.76,1.16,4.83,4.83,0,0,1,.25,1.57A5.48,5.48,0,0,1,50.38,115a4.53,4.53,0,0,1-1.06,1,3.89,3.89,0,0,1-1.31.55,6.26,6.26,0,0,1-1.41.13Zm1.36-1h1.36a7.22,7.22,0,0,0,1.63-.17,2.52,2.52,0,0,0,.76-.31,3.12,3.12,0,0,0,.76-.7,4.47,4.47,0,0,0,.71-1.31,4.85,4.85,0,0,0,.27-1.68A3,3,0,0,0,50,110a1.75,1.75,0,0,0-.93-.74,4.53,4.53,0,0,0-1.3-.14H46.25Z"/><path class="cls-1" d="M52,116.73l1.3-6.23h1.06l-1.3,6.23Zm1.55-7.39.25-1.21h1.05l-.25,1.21Z"/><path class="cls-1" d="M56.28,116.73l-1-6.23h1l.53,3.43c.06.38.14,1,.22,1.84.21-.44.46-1,.78-1.52l2.08-3.75H61l-3.56,6.23Z"/><path class="cls-1" d="M60.67,116.73,62,110.5H63l-1.31,6.23Zm1.55-7.39.25-1.21h1.06l-.25,1.21Z"/><path class="cls-1" d="M63.48,114.6l1.06-.06a2.05,2.05,0,0,0,.14.78,1.2,1.2,0,0,0,.52.53,1.92,1.92,0,0,0,.89.2,1.64,1.64,0,0,0,1-.28.79.79,0,0,0,.14-1.19,3.41,3.41,0,0,0-1.06-.6,8.68,8.68,0,0,1-1.07-.51,1.83,1.83,0,0,1-.6-.57,1.38,1.38,0,0,1-.19-.74,1.64,1.64,0,0,1,.58-1.27,2.38,2.38,0,0,1,1.64-.53,2.62,2.62,0,0,1,1.79.54,1.92,1.92,0,0,1,.64,1.43l-1,.07a1.22,1.22,0,0,0-.4-.89,1.55,1.55,0,0,0-1.06-.33,1.35,1.35,0,0,0-.86.25.74.74,0,0,0-.3.55.65.65,0,0,0,.26.52,5.11,5.11,0,0,0,.91.47,6.28,6.28,0,0,1,1.54.83,1.59,1.59,0,0,1,.5,1.18,1.65,1.65,0,0,1-.28.91,1.89,1.89,0,0,1-.87.71,3.27,3.27,0,0,1-1.38.27,3.11,3.11,0,0,1-1.83-.53A1.89,1.89,0,0,1,63.48,114.6Z"/><path class="cls-1" d="M69.35,116.73l1.3-6.23h1.06l-1.3,6.23Zm1.54-7.39.26-1.21h1L72,109.34Z"/><path class="cls-1" d="M72.24,114.37a4.32,4.32,0,0,1,1.08-3,3,3,0,0,1,2.32-1,2.42,2.42,0,0,1,1.81.71,2.58,2.58,0,0,1,.69,1.9,4.59,4.59,0,0,1-.43,2,3.19,3.19,0,0,1-1.24,1.42,3.12,3.12,0,0,1-1.68.49,2.74,2.74,0,0,1-1.32-.31,2.15,2.15,0,0,1-.91-.88A2.67,2.67,0,0,1,72.24,114.37Zm1.06-.11a1.92,1.92,0,0,0,.43,1.34,1.4,1.4,0,0,0,1.07.45,1.75,1.75,0,0,0,.67-.14,1.93,1.93,0,0,0,.63-.42,2.86,2.86,0,0,0,.49-.64,3.87,3.87,0,0,0,.32-.78,3.68,3.68,0,0,0,.18-1.11,1.89,1.89,0,0,0-.42-1.31,1.4,1.4,0,0,0-1.07-.47,1.77,1.77,0,0,0-.91.24,2.33,2.33,0,0,0-.74.7,3,3,0,0,0-.49,1.06A4.63,4.63,0,0,0,73.3,114.26Z"/><path class="cls-1" d="M78.74,116.73,80,110.5h1l-.23,1.09a4.93,4.93,0,0,1,1.17-.93,2.32,2.32,0,0,1,1.12-.3,1.64,1.64,0,0,1,1.18.41,1.45,1.45,0,0,1,.44,1.1,5.61,5.61,0,0,1-.16,1.09l-.79,3.77H82.67l.83-4a4.53,4.53,0,0,0,.12-.85.66.66,0,0,0-.21-.5.9.9,0,0,0-.62-.19,2.06,2.06,0,0,0-1.45.58,3.7,3.7,0,0,0-.94,2l-.6,2.9Z"/><path class="cls-1" d="M88.94,114.37a4.36,4.36,0,0,1,1.07-3,3,3,0,0,1,2.32-1,2.44,2.44,0,0,1,1.82.71,2.58,2.58,0,0,1,.69,1.9,4.6,4.6,0,0,1-.44,2,3.21,3.21,0,0,1-2.92,1.91,2.79,2.79,0,0,1-1.32-.31,2.21,2.21,0,0,1-.91-.88A2.67,2.67,0,0,1,88.94,114.37Zm1.06-.11a1.92,1.92,0,0,0,.42,1.34,1.41,1.41,0,0,0,1.08.45,1.79,1.79,0,0,0,.67-.14,1.89,1.89,0,0,0,.62-.42,2.59,2.59,0,0,0,.49-.64,3.89,3.89,0,0,0,.33-.78,3.68,3.68,0,0,0,.18-1.11,1.85,1.85,0,0,0-.43-1.31,1.39,1.39,0,0,0-1.07-.47,1.79,1.79,0,0,0-.91.24,2.43,2.43,0,0,0-.74.7,3,3,0,0,0-.48,1.06A4.15,4.15,0,0,0,90,114.26Z"/><path class="cls-1" d="M95.58,116.73l1.13-5.41h-.95l.17-.82h.95l.18-.88a4.14,4.14,0,0,1,.29-1,1.14,1.14,0,0,1,.49-.48,1.83,1.83,0,0,1,.92-.19,5.4,5.4,0,0,1,1.17.17l-.19.92a4,4,0,0,0-.91-.14.68.68,0,0,0-.47.16,1.52,1.52,0,0,0-.28.73l-.14.67h1.19l-.17.82H97.77l-1.13,5.41Z"/><path class="cls-1" d="M102.19,116.73l1.79-8.6h1.15l-1.59,7.63H108l-.2,1Z"/><path class="cls-1" d="M109,114.37a4.32,4.32,0,0,1,1.08-3,3,3,0,0,1,2.32-1,2.42,2.42,0,0,1,1.81.71,2.58,2.58,0,0,1,.69,1.9,4.59,4.59,0,0,1-.43,2,3.19,3.19,0,0,1-1.24,1.42,3.12,3.12,0,0,1-1.68.49,2.8,2.8,0,0,1-1.33-.31,2.12,2.12,0,0,1-.9-.88A2.67,2.67,0,0,1,109,114.37Zm1.06-.11a1.88,1.88,0,0,0,.43,1.34,1.39,1.39,0,0,0,1.07.45,1.75,1.75,0,0,0,.67-.14,1.93,1.93,0,0,0,.63-.42,2.86,2.86,0,0,0,.49-.64,3.87,3.87,0,0,0,.32-.78,3.68,3.68,0,0,0,.18-1.11,1.89,1.89,0,0,0-.42-1.31,1.4,1.4,0,0,0-1.07-.47,1.74,1.74,0,0,0-.91.24,2.33,2.33,0,0,0-.74.7,2.87,2.87,0,0,0-.49,1.06A4.63,4.63,0,0,0,110,114.26Z"/><path class="cls-1" d="M119.72,115.61a3.14,3.14,0,0,1-2.3,1.26,1.64,1.64,0,0,1-1.16-.41,1.31,1.31,0,0,1-.44-1,7,7,0,0,1,.2-1.35l.75-3.6h1.06l-.84,4a4.1,4.1,0,0,0-.1.78.72.72,0,0,0,.21.55.93.93,0,0,0,.63.19,1.92,1.92,0,0,0,.87-.21,2.36,2.36,0,0,0,.74-.59,3.35,3.35,0,0,0,.5-.87,7.17,7.17,0,0,0,.3-1.14l.56-2.69h1.06l-1.3,6.23h-1Z"/><path class="cls-1" d="M122.1,116.73l1.31-6.23h1.06l-1.31,6.23Zm1.55-7.39.25-1.21H125l-.25,1.21Z"/><path class="cls-1" d="M124.91,114.6l1.06-.06a2.05,2.05,0,0,0,.14.78,1.2,1.2,0,0,0,.52.53,2,2,0,0,0,.89.2,1.63,1.63,0,0,0,1-.28.79.79,0,0,0,.14-1.19,3.28,3.28,0,0,0-1.06-.6,8.68,8.68,0,0,1-1.07-.51,1.7,1.7,0,0,1-.59-.57,1.3,1.3,0,0,1-.2-.74,1.64,1.64,0,0,1,.58-1.27,2.38,2.38,0,0,1,1.64-.53,2.62,2.62,0,0,1,1.79.54,1.92,1.92,0,0,1,.64,1.43l-1,.07a1.22,1.22,0,0,0-.4-.89,1.55,1.55,0,0,0-1.06-.33,1.37,1.37,0,0,0-.86.25.74.74,0,0,0-.3.55.68.68,0,0,0,.26.52,5.11,5.11,0,0,0,.91.47,6.28,6.28,0,0,1,1.54.83A1.59,1.59,0,0,1,130,115a1.65,1.65,0,0,1-.28.91,1.89,1.89,0,0,1-.87.71,3.27,3.27,0,0,1-1.38.27,3.11,3.11,0,0,1-1.83-.53A1.91,1.91,0,0,1,124.91,114.6Z"/><path class="cls-1" d="M130.78,116.73l1.3-6.23h1.06l-1.3,6.23Zm1.55-7.39.25-1.21h1l-.25,1.21Z"/><path class="cls-1" d="M137.69,116a4.27,4.27,0,0,1-1.07.69,2.66,2.66,0,0,1-1.09.22,1.92,1.92,0,0,1-1.39-.51,1.7,1.7,0,0,1-.52-1.29,1.78,1.78,0,0,1,.23-.93,1.84,1.84,0,0,1,.63-.64,2.72,2.72,0,0,1,1-.35,8.92,8.92,0,0,1,1.35-.11,5.11,5.11,0,0,0,1.44-.21,2.88,2.88,0,0,0,.12-.73.7.7,0,0,0-.27-.58,1.76,1.76,0,0,0-1.08-.29,1.85,1.85,0,0,0-1.09.3,1.58,1.58,0,0,0-.62.84l-1.07-.1a2.76,2.76,0,0,1,1-1.42,3.12,3.12,0,0,1,1.79-.49,2.85,2.85,0,0,1,1.83.55,1.3,1.3,0,0,1,.52,1.07,5.34,5.34,0,0,1-.15,1.16l-.34,1.54a6,6,0,0,0-.17,1.21,4.55,4.55,0,0,0,.13.84h-1.07A3.56,3.56,0,0,1,137.69,116Zm.39-2.38a3.36,3.36,0,0,1-.48.13c-.17,0-.45.07-.85.1a7.19,7.19,0,0,0-1.31.21,1.09,1.09,0,0,0-.58.4,1.1,1.1,0,0,0-.19.61.93.93,0,0,0,.31.73,1.24,1.24,0,0,0,.88.29,2,2,0,0,0,1-.28,2,2,0,0,0,.77-.77A4.68,4.68,0,0,0,138.08,113.58Z"/><path class="cls-1" d="M140.17,116.73l1.3-6.23h1l-.23,1.09a4.93,4.93,0,0,1,1.17-.93,2.32,2.32,0,0,1,1.12-.3,1.69,1.69,0,0,1,1.19.41,1.48,1.48,0,0,1,.43,1.1A5.61,5.61,0,0,1,146,113l-.79,3.77H144.1l.83-4a4.53,4.53,0,0,0,.12-.85.66.66,0,0,0-.21-.5.9.9,0,0,0-.62-.19,2.06,2.06,0,0,0-1.45.58,3.7,3.7,0,0,0-.94,2l-.6,2.9Z"/><path class="cls-1" d="M151.05,116a4.27,4.27,0,0,1-1.07.69,2.66,2.66,0,0,1-1.09.22,1.92,1.92,0,0,1-1.39-.51,1.7,1.7,0,0,1-.52-1.29,1.78,1.78,0,0,1,.23-.93,1.84,1.84,0,0,1,.63-.64,2.73,2.73,0,0,1,1-.35,9.24,9.24,0,0,1,1.36-.11,5.11,5.11,0,0,0,1.44-.21,2.88,2.88,0,0,0,.12-.73.7.7,0,0,0-.27-.58,1.76,1.76,0,0,0-1.08-.29,1.83,1.83,0,0,0-1.09.3,1.58,1.58,0,0,0-.62.84l-1.07-.1a2.76,2.76,0,0,1,1-1.42,3.12,3.12,0,0,1,1.79-.49,2.85,2.85,0,0,1,1.83.55,1.3,1.3,0,0,1,.52,1.07,5.34,5.34,0,0,1-.15,1.16l-.34,1.54a6,6,0,0,0-.17,1.21,4.55,4.55,0,0,0,.13.84h-1.07A3.56,3.56,0,0,1,151.05,116Zm.39-2.38a3.36,3.36,0,0,1-.48.13c-.17,0-.45.07-.85.1a7.19,7.19,0,0,0-1.31.21,1.09,1.09,0,0,0-.58.4,1,1,0,0,0-.19.61.93.93,0,0,0,.31.73,1.24,1.24,0,0,0,.88.29,2,2,0,0,0,1-.28A2,2,0,0,0,151,115,4.68,4.68,0,0,0,151.44,113.58Z"/><path class="cls-1" d="M157,116.73l1.8-8.6H165l-.21,1h-5.05l-.57,2.68h4.93l-.2,1H159l-.62,3h5.41l-.2,1Z"/><path class="cls-1" d="M169.17,114.46l1.06.11a3.55,3.55,0,0,1-1.13,1.74,2.72,2.72,0,0,1-1.68.56,2.2,2.2,0,0,1-1.64-.65,2.57,2.57,0,0,1-.63-1.84,5.26,5.26,0,0,1,.4-2,3.34,3.34,0,0,1,1.16-1.5,3,3,0,0,1,1.72-.51,2.18,2.18,0,0,1,1.59.57,2,2,0,0,1,.59,1.5l-1.05.07a1.22,1.22,0,0,0-.34-.93,1.21,1.21,0,0,0-.89-.33,1.62,1.62,0,0,0-1.1.4,2.63,2.63,0,0,0-.74,1.23,5.1,5.1,0,0,0-.27,1.59,1.76,1.76,0,0,0,.35,1.19,1.12,1.12,0,0,0,.87.4,1.52,1.52,0,0,0,1-.39A2.6,2.6,0,0,0,169.17,114.46Z"/><path class="cls-1" d="M171.07,114.37a4.31,4.31,0,0,1,1.07-3,3,3,0,0,1,2.32-1,2.44,2.44,0,0,1,1.82.71A2.58,2.58,0,0,1,177,113a4.6,4.6,0,0,1-.44,2,3.24,3.24,0,0,1-1.23,1.42,3.18,3.18,0,0,1-1.69.49,2.79,2.79,0,0,1-1.32-.31,2.15,2.15,0,0,1-.91-.88A2.67,2.67,0,0,1,171.07,114.37Zm1.06-.11a1.92,1.92,0,0,0,.42,1.34,1.4,1.4,0,0,0,1.07.45,1.8,1.8,0,0,0,.68-.14,1.89,1.89,0,0,0,.62-.42,2.86,2.86,0,0,0,.49-.64,3.87,3.87,0,0,0,.32-.78,3.41,3.41,0,0,0,.19-1.11,1.9,1.9,0,0,0-.43-1.31,1.39,1.39,0,0,0-1.07-.47,1.79,1.79,0,0,0-.91.24,2.43,2.43,0,0,0-.74.7,3.23,3.23,0,0,0-.49,1.06A4.57,4.57,0,0,0,172.13,114.26Z"/><path class="cls-1" d="M177.56,116.73l1.3-6.23h1l-.23,1.09a4.76,4.76,0,0,1,1.18-.93,2.26,2.26,0,0,1,1.11-.3,1.67,1.67,0,0,1,1.19.41,1.45,1.45,0,0,1,.43,1.1,6.26,6.26,0,0,1-.15,1.09l-.79,3.77h-1.07l.83-4a4.53,4.53,0,0,0,.12-.85.66.66,0,0,0-.21-.5.89.89,0,0,0-.62-.19,2.07,2.07,0,0,0-1.45.58,3.7,3.7,0,0,0-.94,2l-.6,2.9Z"/><path class="cls-1" d="M184.43,114.37a4.31,4.31,0,0,1,1.07-3,3,3,0,0,1,2.32-1,2.44,2.44,0,0,1,1.82.71,2.58,2.58,0,0,1,.69,1.9,4.6,4.6,0,0,1-.44,2,3.24,3.24,0,0,1-1.23,1.42,3.18,3.18,0,0,1-1.69.49,2.79,2.79,0,0,1-1.32-.31,2.15,2.15,0,0,1-.91-.88A2.67,2.67,0,0,1,184.43,114.37Zm1.06-.11a1.92,1.92,0,0,0,.42,1.34,1.4,1.4,0,0,0,1.07.45,1.8,1.8,0,0,0,.68-.14,1.89,1.89,0,0,0,.62-.42,2.86,2.86,0,0,0,.49-.64,3.87,3.87,0,0,0,.32-.78,3.41,3.41,0,0,0,.19-1.11,1.9,1.9,0,0,0-.43-1.31,1.39,1.39,0,0,0-1.07-.47,1.79,1.79,0,0,0-.91.24,2.43,2.43,0,0,0-.74.7,3.23,3.23,0,0,0-.49,1.06A4.57,4.57,0,0,0,185.49,114.26Z"/><path class="cls-1" d="M190.91,116.73l1.3-6.23h1.07l-.22,1a4.29,4.29,0,0,1,1.06-.92,2.19,2.19,0,0,1,1-.25,1.5,1.5,0,0,1,1,.31,1.42,1.42,0,0,1,.51.86,3.66,3.66,0,0,1,1-.88,2.3,2.3,0,0,1,1.11-.29,1.67,1.67,0,0,1,1.17.37,1.36,1.36,0,0,1,.39,1,5.61,5.61,0,0,1-.14,1l-.84,4h-1.06l.86-4.12a4.06,4.06,0,0,0,.11-.72.62.62,0,0,0-.19-.48.77.77,0,0,0-.55-.17,1.92,1.92,0,0,0-1,.28,2.13,2.13,0,0,0-.76.76,5.22,5.22,0,0,0-.48,1.43l-.63,3h-1.06l.88-4.2a3.51,3.51,0,0,0,.09-.61.66.66,0,0,0-.19-.5.7.7,0,0,0-.5-.18,1.87,1.87,0,0,0-.94.28,2.22,2.22,0,0,0-.81.8,4.69,4.69,0,0,0-.51,1.47l-.62,2.94Z"/><path class="cls-1" d="M200.88,116.73l1.3-6.23h1.07l-1.31,6.23Zm1.55-7.39.25-1.21h1.06l-.25,1.21Z"/><path class="cls-1" d="M207.89,114.46l1.06.11a3.55,3.55,0,0,1-1.13,1.74,2.72,2.72,0,0,1-1.68.56,2.18,2.18,0,0,1-1.64-.65,2.57,2.57,0,0,1-.63-1.84,5.26,5.26,0,0,1,.4-2,3.34,3.34,0,0,1,1.16-1.5,3,3,0,0,1,1.72-.51,2.18,2.18,0,0,1,1.59.57,2,2,0,0,1,.59,1.5l-1.05.07a1.22,1.22,0,0,0-.34-.93,1.21,1.21,0,0,0-.89-.33,1.65,1.65,0,0,0-1.11.4,2.62,2.62,0,0,0-.73,1.23,5.1,5.1,0,0,0-.27,1.59,1.76,1.76,0,0,0,.35,1.19,1.12,1.12,0,0,0,.87.4,1.56,1.56,0,0,0,1-.39A2.6,2.6,0,0,0,207.89,114.46Z"/><path class="cls-1" d="M213.07,116.73l1.79-8.6h2.6a5.65,5.65,0,0,1,1.42.14,2.7,2.7,0,0,1,1.2.65,3,3,0,0,1,.75,1.16,4.57,4.57,0,0,1,.26,1.57A5.48,5.48,0,0,1,220,115a4.53,4.53,0,0,1-1.06,1,4,4,0,0,1-1.31.55,6.36,6.36,0,0,1-1.42.13Zm1.35-1h1.36a7.32,7.32,0,0,0,1.64-.17,2.52,2.52,0,0,0,.76-.31,3.12,3.12,0,0,0,.76-.7,4.71,4.71,0,0,0,.71-1.31,4.85,4.85,0,0,0,.27-1.68,3,3,0,0,0-.36-1.6,1.79,1.79,0,0,0-.93-.74,4.53,4.53,0,0,0-1.3-.14h-1.52Z"/><path class="cls-1" d="M226.18,114.61l1,.11a3.08,3.08,0,0,1-1,1.46,2.82,2.82,0,0,1-1.91.69,2.63,2.63,0,0,1-1.27-.32,2.09,2.09,0,0,1-.88-.93,3.09,3.09,0,0,1-.3-1.39,4.5,4.5,0,0,1,.47-2,3.33,3.33,0,0,1,1.23-1.42,3,3,0,0,1,1.62-.47,2.37,2.37,0,0,1,1.78.69,2.64,2.64,0,0,1,.66,1.89,5,5,0,0,1-.08.94h-4.58a2,2,0,0,0,0,.33,2,2,0,0,0,.4,1.33,1.26,1.26,0,0,0,1,.46,1.94,1.94,0,0,0,1.07-.35A2.33,2.33,0,0,0,226.18,114.61Zm-3.08-1.54h3.49c0-.11,0-.19,0-.23a1.78,1.78,0,0,0-.4-1.23,1.36,1.36,0,0,0-1-.42,1.87,1.87,0,0,0-1.24.47A2.78,2.78,0,0,0,223.1,113.07Z"/><path class="cls-1" d="M229.86,116.73l-1-6.23h1l.53,3.43c.06.38.13,1,.22,1.84.2-.44.46-1,.78-1.52l2.08-3.75h1.12L231,116.73Z"/><path class="cls-1" d="M238.87,114.61l1,.11a3.11,3.11,0,0,1-1,1.46,2.8,2.8,0,0,1-1.9.69,2.58,2.58,0,0,1-1.27-.32,2,2,0,0,1-.88-.93,3.09,3.09,0,0,1-.31-1.39,4.38,4.38,0,0,1,.48-2,3.31,3.31,0,0,1,1.22-1.42,3,3,0,0,1,1.62-.47,2.34,2.34,0,0,1,1.78.69,2.6,2.6,0,0,1,.67,1.89,6.07,6.07,0,0,1-.08.94h-4.59c0,.12,0,.23,0,.33a1.94,1.94,0,0,0,.4,1.33,1.25,1.25,0,0,0,1,.46,2,2,0,0,0,1.08-.35A2.4,2.4,0,0,0,238.87,114.61Zm-3.09-1.54h3.5v-.23a1.78,1.78,0,0,0-.39-1.23,1.36,1.36,0,0,0-1-.42,1.83,1.83,0,0,0-1.24.47A2.79,2.79,0,0,0,235.78,113.07Z"/><path class="cls-1" d="M240.89,116.73l1.79-8.6h1.07l-1.8,8.6Z"/><path class="cls-1" d="M243.83,114.37a4.36,4.36,0,0,1,1.07-3,3,3,0,0,1,2.32-1,2.44,2.44,0,0,1,1.82.71,2.58,2.58,0,0,1,.69,1.9,4.6,4.6,0,0,1-.44,2,3.24,3.24,0,0,1-1.23,1.42,3.16,3.16,0,0,1-1.69.49,2.79,2.79,0,0,1-1.32-.31,2.15,2.15,0,0,1-.91-.88A2.67,2.67,0,0,1,243.83,114.37Zm1.06-.11a1.92,1.92,0,0,0,.42,1.34,1.4,1.4,0,0,0,1.07.45,1.8,1.8,0,0,0,.68-.14,1.89,1.89,0,0,0,.62-.42,2.59,2.59,0,0,0,.49-.64,3.89,3.89,0,0,0,.33-.78,3.68,3.68,0,0,0,.18-1.11,1.85,1.85,0,0,0-.43-1.31,1.39,1.39,0,0,0-1.07-.47,1.79,1.79,0,0,0-.91.24,2.43,2.43,0,0,0-.74.7,3.23,3.23,0,0,0-.49,1.06A4.57,4.57,0,0,0,244.89,114.26Z"/><path class="cls-1" d="M249.8,119.12l1.8-8.62h1l-.18.87a4,4,0,0,1,1-.79,2.07,2.07,0,0,1,.91-.22,1.91,1.91,0,0,1,1.48.65,2.68,2.68,0,0,1,.59,1.86,4.81,4.81,0,0,1-.32,1.77,4.23,4.23,0,0,1-.79,1.29,3.35,3.35,0,0,1-1,.71,2.14,2.14,0,0,1-1,.23,1.91,1.91,0,0,1-1.74-1.14l-.7,3.39Zm2.1-4.93a3,3,0,0,0,.1,1,1.3,1.3,0,0,0,1.25.85,1.68,1.68,0,0,0,1.48-1,4.3,4.3,0,0,0,.56-2.11,1.8,1.8,0,0,0-.37-1.22,1.21,1.21,0,0,0-.95-.43,1.42,1.42,0,0,0-.75.21,2.28,2.28,0,0,0-.64.64,3.86,3.86,0,0,0-.49,1A3.62,3.62,0,0,0,251.9,114.19Z"/><path class="cls-1" d="M257,116.73l1.31-6.23h1.06l-.22,1a4.29,4.29,0,0,1,1.06-.92,2.19,2.19,0,0,1,1-.25,1.48,1.48,0,0,1,1,.31,1.42,1.42,0,0,1,.51.86,3.66,3.66,0,0,1,1-.88,2.3,2.3,0,0,1,1.11-.29,1.67,1.67,0,0,1,1.17.37,1.36,1.36,0,0,1,.39,1,5.61,5.61,0,0,1-.14,1l-.83,4h-1.06l.85-4.12a4.06,4.06,0,0,0,.11-.72.62.62,0,0,0-.19-.48.77.77,0,0,0-.55-.17,1.89,1.89,0,0,0-1,.28,2.08,2.08,0,0,0-.77.76,5.22,5.22,0,0,0-.48,1.43l-.63,3h-1.06l.88-4.2a3.51,3.51,0,0,0,.09-.61.66.66,0,0,0-.19-.5.7.7,0,0,0-.5-.18,1.87,1.87,0,0,0-.94.28,2.3,2.3,0,0,0-.81.8,4.69,4.69,0,0,0-.51,1.47l-.61,2.94Z"/><path class="cls-1" d="M271.58,114.61l1,.11a3.16,3.16,0,0,1-1,1.46,2.84,2.84,0,0,1-1.91.69,2.6,2.6,0,0,1-1.27-.32,2,2,0,0,1-.88-.93,3.09,3.09,0,0,1-.3-1.39,4.5,4.5,0,0,1,.47-2,3.31,3.31,0,0,1,1.22-1.42,3.06,3.06,0,0,1,1.63-.47,2.37,2.37,0,0,1,1.78.69,2.64,2.64,0,0,1,.66,1.89,5,5,0,0,1-.08.94h-4.59c0,.12,0,.23,0,.33a1.94,1.94,0,0,0,.4,1.33,1.25,1.25,0,0,0,1,.46,2,2,0,0,0,1.08-.35A2.4,2.4,0,0,0,271.58,114.61Zm-3.09-1.54H272c0-.11,0-.19,0-.23a1.78,1.78,0,0,0-.4-1.23,1.36,1.36,0,0,0-1-.42,1.85,1.85,0,0,0-1.24.47A2.86,2.86,0,0,0,268.49,113.07Z"/><path class="cls-1" d="M273.68,116.73,275,110.5h1l-.23,1.09a4.93,4.93,0,0,1,1.17-.93,2.32,2.32,0,0,1,1.12-.3,1.64,1.64,0,0,1,1.18.41,1.45,1.45,0,0,1,.43,1.1,6.26,6.26,0,0,1-.15,1.09l-.79,3.77h-1.06l.83-4a4.53,4.53,0,0,0,.12-.85.66.66,0,0,0-.21-.5.9.9,0,0,0-.62-.19,2.1,2.1,0,0,0-1.46.58,3.77,3.77,0,0,0-.93,2l-.6,2.9Z"/><path class="cls-1" d="M282.85,115.87l-.18.87a3.28,3.28,0,0,1-.74.1,1.58,1.58,0,0,1-1-.31.79.79,0,0,1-.28-.64,6.43,6.43,0,0,1,.15-1l.76-3.62h-.84l.17-.82h.84L282,109l1.21-.73-.47,2.26h1l-.17.82h-1l-.72,3.45a6.92,6.92,0,0,0-.14.78.38.38,0,0,0,.11.29.52.52,0,0,0,.36.1A2.48,2.48,0,0,0,282.85,115.87Z"/><path class="cls-1" d="M32.07,79.75a.52.52,0,0,1,.52-.53H44.11a.53.53,0,0,1,.53.53v3a.53.53,0,0,1-.53.53h-7.7v3.45h6.34a.55.55,0,0,1,.53.53v3a.53.53,0,0,1-.53.53H36.41v3.76h7.7a.53.53,0,0,1,.53.53v3a.53.53,0,0,1-.53.53H32.59a.52.52,0,0,1-.52-.53Z"/><path class="cls-1" d="M50.93,79.45a.52.52,0,0,1,.53-.5h.7l11.1,10.68h0V79.75a.53.53,0,0,1,.53-.53h3.33a.55.55,0,0,1,.53.53V98.48a.53.53,0,0,1-.53.5h-.44a.88.88,0,0,1-.36-.14l-11-11h0V98.17a.53.53,0,0,1-.53.53H51.49a.55.55,0,0,1-.53-.53Z"/><path class="cls-1" d="M77.56,83.31h-4a.53.53,0,0,1-.53-.53v-3a.53.53,0,0,1,.53-.53H85.94a.53.53,0,0,1,.53.53v3a.53.53,0,0,1-.53.53H82V98.17a.55.55,0,0,1-.53.53H78.09a.55.55,0,0,1-.53-.53Z"/><path class="cls-1" d="M91.84,79.75a.53.53,0,0,1,.53-.53h11.52a.53.53,0,0,1,.53.53v3a.53.53,0,0,1-.53.53H96.18v3.45h6.34a.55.55,0,0,1,.53.53v3a.53.53,0,0,1-.53.53H96.18v3.76h7.71a.53.53,0,0,1,.53.53v3a.53.53,0,0,1-.53.53H92.37a.53.53,0,0,1-.53-.53Z"/><path class="cls-1" d="M110.74,79.75a.52.52,0,0,1,.52-.53h8.32a6.05,6.05,0,0,1,6.07,6,6.12,6.12,0,0,1-4.12,5.6l3.81,7.06a.53.53,0,0,1-.47.81h-3.7a.53.53,0,0,1-.45-.25L117,91.08H115.1v7.09a.55.55,0,0,1-.53.53h-3.31a.52.52,0,0,1-.52-.53Zm8.48,7.79a2.23,2.23,0,0,0,2.12-2.22,2.14,2.14,0,0,0-2.12-2.12H115.1v4.34Z"/><path class="cls-1" d="M133.92,83.31h-4a.53.53,0,0,1-.53-.53v-3a.53.53,0,0,1,.53-.53h12.35a.53.53,0,0,1,.53.53v3a.53.53,0,0,1-.53.53h-4V98.17a.55.55,0,0,1-.53.53h-3.34a.55.55,0,0,1-.52-.53Z"/><path class="cls-1" d="M144.13,98l8.71-18.73a.55.55,0,0,1,.47-.3h.28a.55.55,0,0,1,.47.3L162.77,98a.49.49,0,0,1-.47.72h-3.09c-.5,0-.72-.17-1-.7l-1-2.19h-7.56l-1,2.22a1,1,0,0,1-1,.67H144.6A.49.49,0,0,1,144.13,98Zm11.43-6-2.11-4.59h0L151.34,92Z"/><path class="cls-1" d="M167.64,79.75a.55.55,0,0,1,.53-.53h3.34a.55.55,0,0,1,.53.53V98.17a.55.55,0,0,1-.53.53h-3.34a.55.55,0,0,1-.53-.53Z"/><path class="cls-1" d="M179.39,79.45a.52.52,0,0,1,.53-.5h.69l11.1,10.68h0V79.75a.53.53,0,0,1,.53-.53h3.34a.55.55,0,0,1,.53.53V98.48a.54.54,0,0,1-.53.5h-.45a.93.93,0,0,1-.36-.14l-11-11h0V98.17a.53.53,0,0,1-.53.53h-3.31a.55.55,0,0,1-.53-.53Z"/><path class="cls-1" d="M204.88,79.39a.51.51,0,0,1,.5-.44h.44a.65.65,0,0,1,.48.27l6.45,12h.05l6.46-12a.61.61,0,0,1,.47-.27h.45a.53.53,0,0,1,.5.44l3.14,18.7a.51.51,0,0,1-.53.61H220a.57.57,0,0,1-.53-.45l-1.25-8.59h-.06l-4.67,9A.63.63,0,0,1,213,99h-.5a.62.62,0,0,1-.48-.31l-4.7-9h0l-1.23,8.59a.54.54,0,0,1-.53.45h-3.28a.51.51,0,0,1-.53-.61Z"/><path class="cls-1" d="M229.42,79.75a.53.53,0,0,1,.53-.53h11.52a.53.53,0,0,1,.53.53v3a.53.53,0,0,1-.53.53h-7.71v3.45h6.34a.55.55,0,0,1,.53.53v3a.53.53,0,0,1-.53.53h-6.34v3.76h7.71a.53.53,0,0,1,.53.53v3a.53.53,0,0,1-.53.53H230a.53.53,0,0,1-.53-.53Z"/><path class="cls-1" d="M248.29,79.45a.52.52,0,0,1,.53-.5h.69l11.1,10.68h0V79.75a.53.53,0,0,1,.53-.53h3.34a.55.55,0,0,1,.53.53V98.48a.53.53,0,0,1-.53.5h-.45a.93.93,0,0,1-.36-.14l-11-11h0V98.17a.52.52,0,0,1-.52.53h-3.32a.55.55,0,0,1-.52-.53Z"/><path class="cls-1" d="M274.92,83.31h-4a.53.53,0,0,1-.53-.53v-3a.53.53,0,0,1,.53-.53h12.35a.53.53,0,0,1,.53.53v3a.53.53,0,0,1-.53.53h-4V98.17a.55.55,0,0,1-.52.53h-3.34a.55.55,0,0,1-.53-.53Z"/><path class="cls-1" d="M113,51c0,4.65-.33,9.73-6.31,9.73s-6.31-5.08-6.31-9.73V32.13H91.09V52.24c0,4.61.19,9.16,3.74,12.62,3,2.94,7.69,4,11.86,4s8.87-1,11.86-4c3.56-3.46,3.75-8,3.75-12.62V32.13H113Z"/><polygon class="cls-1" points="41.36 32.13 32.07 32.13 32.07 67.89 51.58 67.89 54.46 60.02 41.36 60.02 41.36 32.13"/><path class="cls-1" d="M69.45,30.94c-10.3,0-19.78,7.6-19.78,18.41A21,21,0,0,0,51.45,58l6.6,0-.1.27h0l-.26.67L57.3,60l-1.49,4.05a19.9,19.9,0,0,0,13.64,5c11.48,0,19.78-8.16,19.78-19.73C89.23,38.54,79.74,30.94,69.45,30.94Zm0,29.13c-5.55,0-10.11-4.51-10.11-10.67,0-4.94,4.56-9.44,10.11-9.44s10.1,4.5,10.1,9.44C79.55,55.56,75,60.07,69.45,60.07Z"/><path class="cls-1" d="M270.35,32.13H260.2L247.37,65.5V32.13h-9.3V54H238l-17-21.87h-9.29V64.47L199.47,32.13H189.31L176.45,65.58V32.13h-9.3V67.9h22.14v-.69a1.46,1.46,0,0,1,1.22-1.44c.16,0,.32,0,.49-.06a4,4,0,0,0-1.39-2.78,2.33,2.33,0,0,0-2.4-.12,2.1,2.1,0,0,0-.94,1.38,3,3,0,0,0,0,1.31,3.52,3.52,0,0,1-2.58-2.3,4.16,4.16,0,0,1,.81-3.9,3.11,3.11,0,0,1,3.36-1c2.27.82,3.72,3.56,3.92,7.35.57-.06,1.13-.1,1.7-.11-.06-3.12-.6-4.6-1.86-8v0c-.19-.52-.4-1.09-.62-1.71-.79-2.19-.33-5,1.26-7.64a15.31,15.31,0,0,1,1.83-2.4,18.39,18.39,0,0,1,1.83,2.39c1.59,2.68,2,5.47,1.23,7.65h0l-.56,1.53-.06.14c-1.27,3.45-1.82,5-1.88,8.07.56,0,1.12,0,1.67.1.17-3.77,1.63-6.51,3.93-7.34a3.08,3.08,0,0,1,3.35,1,4.06,4.06,0,0,1,.81,3.82,3.59,3.59,0,0,1-2.61,2.38,3.11,3.11,0,0,0,0-1.39,2,2,0,0,0-.95-1.31,2.31,2.31,0,0,0-2.35.11A3.77,3.77,0,0,0,197,65.7l.58.07h0a1.45,1.45,0,0,1,1.21,1.44v.69h22.11V46h.1l17,21.92h18.24l1.21-3.05L261.7,53.5l3.48-10.32h.1l3.79,11.39h-3.88l-2.62,7.11h9l2.33,6.22h9.91Z"/><rect class="cls-1" x="126.19" y="32.13" width="9.3" height="35.76"/><path class="cls-1" d="M155.71,46.08l-2.38-.71c-1.6-.53-4.12-1.33-4.12-3.42s2.28-3,4-3a9.8,9.8,0,0,1,6.16,2.37l3.7-7.21a24.46,24.46,0,0,0-11.19-2.94c-7.17,0-12.34,4.75-12.34,12,0,6.93,3.84,8.45,9.68,10.11,2,.57,5.64,1.47,5.64,4.08s-2.32,3.6-4.5,3.6c-3.18,0-6.76-2.38-9.09-4.42l-3.15,8.22a22.06,22.06,0,0,0,12.57,4.08,15.69,15.69,0,0,0,10.15-3.37c2.85-2.42,3.7-6.08,3.7-9.63C164.53,50.06,160.69,47.55,155.71,46.08Z"/></svg>