<svg width="27" height="27" viewBox="0 0 27 27" fill="none" xmlns="http://www.w3.org/2000/svg">
<g clip-path="url(#clip0_112_4)">
<path fill-rule="evenodd" clip-rule="evenodd" d="M10 0C15.5228 0 20 4.47715 20 10C20 12.5069 19.0775 14.7984 17.5535 16.5535C17.5922 16.5824 17.6294 16.6144 17.6646 16.6496L26.015 24.9999C26.4055 25.3904 26.4055 26.0236 26.015 26.4141C25.6244 26.8047 24.9913 26.8047 24.6008 26.4141L16.2504 18.0638C16.2017 18.0151 16.159 17.9626 16.1225 17.9072C14.4307 19.2191 12.3065 20 10 20C4.47715 20 0 15.5228 0 10C0 4.47715 4.47715 0 10 0ZM10 2C14.4183 2 18 5.58172 18 10C18 14.4183 14.4183 18 10 18C5.58172 18 2 14.4183 2 10C2 5.58172 5.58172 2 10 2Z" fill="#004876"/>
</g>
<defs>
<clipPath id="clip0_112_4">
<rect width="27" height="27" fill="white"/>
</clipPath>
</defs>
</svg>
