<svg width="291" height="78" viewBox="0 0 291 78" fill="none" xmlns="http://www.w3.org/2000/svg">
<g clip-path="url(#clip0_124_83)">
<path d="M58.6 28.4608C58.7754 28.5356 58.964 28.5742 59.1547 28.5746C59.4685 28.5608 59.7689 28.4435 60.009 28.241C60.2491 28.0384 60.4154 27.7622 60.482 27.4552C60.5486 27.1482 60.5117 26.8279 60.3771 26.5441C60.2425 26.2603 60.0177 26.029 59.7379 25.8864L0.277354 0.0782283C0.189118 0.0390273 0.0957158 0.012683 0 0V3.02245L58.6 28.4608Z" fill="#007853"/>
<path d="M58.6 51.9435C58.9394 52.0864 59.3209 52.0922 59.6645 51.9596C60.008 51.8269 60.2867 51.5662 60.4419 51.2323C60.5849 50.893 60.5906 50.5114 60.458 50.1679C60.3254 49.8243 60.0647 49.5457 59.7308 49.3904L0.277354 23.5609C0.189118 23.5217 0.0957158 23.4953 0 23.4827V26.5051L58.6 51.9435Z" fill="#00B451"/>
<path d="M58.6 34.3919C58.7749 34.4691 58.9636 34.5102 59.1547 34.5128C59.4762 34.508 59.7866 34.3943 60.0352 34.1904C60.2838 33.9864 60.456 33.7043 60.5236 33.3899C60.5913 33.0756 60.5504 32.7476 60.4077 32.4595C60.265 32.1713 60.0289 31.94 59.7379 31.8033L0.277354 6.01646C0.187955 5.97891 0.0950479 5.95032 0 5.93112V8.96068L58.6 34.3919Z" fill="#00C4B3"/>
<path d="M58.6 40.2875C58.7754 40.3622 58.964 40.4009 59.1547 40.4013C59.4685 40.3874 59.7689 40.2701 60.009 40.0676C60.2491 39.8651 60.4154 39.5888 60.482 39.2819C60.5486 38.9749 60.5117 38.6545 60.3771 38.3707C60.2425 38.0869 60.0177 37.8557 59.7379 37.7131L0.277354 11.8907C0.188389 11.8563 0.0950096 11.8348 0 11.8267V14.8491L58.6 40.2875Z" fill="#00ACD8"/>
<path d="M58.6 46.1333C58.7754 46.208 58.964 46.2467 59.1547 46.2471C59.4685 46.2332 59.7689 46.1159 60.009 45.9134C60.2491 45.7109 60.4154 45.4346 60.482 45.1277C60.5486 44.8207 60.5117 44.5003 60.3771 44.2165C60.2425 43.9327 60.0177 43.7015 59.7379 43.5589L0.277354 17.7507C0.189118 17.7115 0.0957158 17.6851 0 17.6725V20.6949L58.6 46.1333Z" fill="#76BC21"/>
<path d="M0.277354 66.0957L59.7379 40.2875C60.0207 40.1046 60.2294 39.8273 60.3269 39.505C60.4244 39.1827 60.4044 38.8362 60.2704 38.5272C60.1364 38.2182 59.8971 37.9668 59.5951 37.8178C59.2932 37.6687 58.9481 37.6316 58.6213 37.7131L0 63.1515V66.1739C0.0957158 66.1612 0.189118 66.1349 0.277354 66.0957Z" fill="#00698F"/>
<path d="M0.277354 60.2001L59.7379 34.3919C60.0413 34.2168 60.2694 33.9358 60.3785 33.6029C60.4876 33.27 60.47 32.9085 60.329 32.5877C60.188 32.267 59.9336 32.0096 59.6145 31.8648C59.2955 31.72 58.9342 31.6982 58.6 31.8033L0 57.2559V60.2855C0.0960119 60.2702 0.189388 60.2415 0.277354 60.2001Z" fill="#005487"/>
<path d="M0.284466 71.9415L59.7379 46.1333C60.0207 45.9504 60.2294 45.6731 60.3269 45.3508C60.4244 45.0285 60.4044 44.682 60.2704 44.373C60.1364 44.064 59.8971 43.8126 59.5951 43.6636C59.2932 43.5145 58.9481 43.4774 58.6213 43.5589L0 68.9972V72.0197C0.0977355 72.0057 0.193313 71.9794 0.284466 71.9415Z" fill="#006E96"/>
<path d="M0.284466 77.7517L59.7379 51.9435C60.027 51.7616 60.241 51.4818 60.3408 51.1552C60.4406 50.8286 60.4195 50.477 60.2815 50.1646C60.1434 49.8522 59.8975 49.5999 59.5888 49.4539C59.2801 49.3078 58.9291 49.2777 58.6 49.3691L0 74.8075V77.8299C0.0977355 77.8159 0.193313 77.7896 0.284466 77.7517Z" fill="#0083AD"/>
<path d="M0.277354 54.269L59.7379 28.4608C60.0207 28.2779 60.2294 28.0006 60.3269 27.6783C60.4244 27.356 60.4044 27.0095 60.2704 26.7005C60.1364 26.3916 59.8971 26.1402 59.5951 25.9911C59.2932 25.842 58.9481 25.8049 58.6213 25.8864L0 51.3248V54.3543C0.0950479 54.3351 0.187955 54.3065 0.277354 54.269Z" fill="#004876"/>
<path d="M79.7713 25.6375H87.2101L93.6106 45.8915L99.94 25.6375H107.109L97.5078 52.8751H89.3721L79.7713 25.6375Z" fill="#081F2D"/>
<path d="M162.729 21.7261H155.475V15.2758H162.729V21.7261ZM155.475 25.6375H162.729V52.8751H155.475V25.6375Z" fill="#081F2D"/>
<path d="M169.385 30.8717H164.805V25.6375H169.385C169.442 24.8481 169.442 24.0516 169.499 23.312C169.769 17.7578 172.344 14.906 178.495 14.906C179.793 14.9119 181.089 15.0165 182.371 15.2189V20.5598C181.583 20.3786 180.776 20.2903 179.967 20.2966C177.08 20.2966 176.589 21.783 176.589 25.6375H182.058V30.8717H176.604V52.8751H169.385V30.8717Z" fill="#081F2D"/>
<path d="M196.445 24.8481C204.68 24.8481 209.922 30.7721 209.922 39.2279C209.922 47.7619 204.787 53.6147 196.445 53.6147C188.103 53.6147 182.933 47.7974 182.933 39.2279C182.933 30.6583 188.153 24.8481 196.445 24.8481ZM196.388 48.1174C200.534 48.1174 202.881 44.5189 202.881 39.2279C202.881 33.9368 200.534 30.2956 196.388 30.2956C192.349 30.2956 189.988 33.9439 189.988 39.1781C189.988 44.4123 192.299 48.1174 196.388 48.1174Z" fill="#081F2D"/>
<path d="M256.503 42.613C255.578 49.5824 251.041 53.7214 244.122 53.7214C236.1 53.7214 231.029 47.9041 231.029 39.4981C231.029 31.0921 235.936 24.8552 244.171 24.8552C250.664 24.8552 255.742 28.2902 256.339 35.2738H249.576C249.192 32.1518 247.229 30.3525 244.335 30.3525C239.976 30.3525 238.119 34.4275 238.119 39.4981C238.119 44.2629 240.025 48.2241 244.122 48.2241C247.229 48.2241 249.249 46.0906 249.74 42.6201L256.503 42.613Z" fill="#081F2D"/>
<path d="M113.786 41.1053C113.95 45.7066 116.183 48.4588 120.329 48.4588C123.174 48.4588 125.186 46.9227 125.89 44.4407H132.661C131.146 50.5212 126.587 53.6432 120.187 53.6432C111.838 53.6432 106.767 47.8756 106.767 39.2563C106.767 30.8503 112.222 24.9263 120.08 24.9263C128.422 24.9263 132.725 30.9783 132.995 39.2848C132.995 40.2022 132.995 40.5151 132.959 41.1053H113.786ZM120.002 30.2103C116.126 30.2103 114.113 33.0549 113.836 36.3476H126.303C125.826 32.3296 123.451 30.2103 120.016 30.2103H120.002Z" fill="#081F2D"/>
<path d="M265.393 41.1053C265.556 45.7066 267.789 48.4588 271.935 48.4588C273.184 48.5325 274.42 48.173 275.435 47.4409C276.449 46.7089 277.18 45.6491 277.504 44.4407H284.267C282.738 50.5212 278.215 53.6432 271.772 53.6432C263.43 53.6432 258.352 47.8756 258.352 39.2563C258.352 30.8503 263.814 24.9263 271.665 24.9263C280.014 24.9263 284.31 30.9783 284.58 39.2848C284.58 40.2022 284.58 40.5151 284.544 41.1053H265.393ZM271.608 30.2103C267.739 30.2103 265.72 33.0549 265.449 36.3476H277.916C277.426 32.3296 275.05 30.2103 271.608 30.2103Z" fill="#081F2D"/>
<path d="M135.833 25.6375H139.623L141.806 30.7579C143.826 27.1594 146.784 25.4028 150.881 25.4028C151.514 25.3699 152.148 25.4081 152.772 25.5166V31.974C151.972 31.7629 151.147 31.6553 150.319 31.654C143.99 31.654 142.247 35.672 142.247 42.7055V52.8751H135.847L135.833 25.6375Z" fill="#081F2D"/>
<path d="M213.008 25.6375H216.806L218.982 30.7579C221.002 27.1594 223.96 25.4028 228.056 25.4028C228.689 25.3699 229.324 25.4081 229.948 25.5166V31.974C229.147 31.7629 228.323 31.6553 227.495 31.654C221.165 31.654 219.423 35.672 219.423 42.7055V52.8751H213.022L213.008 25.6375Z" fill="#081F2D"/>
<path d="M284.843 27.5861C284.831 27.2338 284.891 26.8829 285.019 26.5544C285.147 26.2259 285.34 25.9267 285.586 25.6748C285.833 25.423 286.128 25.2237 286.454 25.0889C286.779 24.9541 287.129 24.8868 287.481 24.8908C288.015 24.8809 288.539 25.0299 288.987 25.3189C289.436 25.6079 289.788 26.0238 289.999 26.5137C290.211 27.0035 290.272 27.5451 290.174 28.0696C290.077 28.5941 289.825 29.0778 289.452 29.459C289.079 29.8402 288.601 30.1018 288.079 30.2104C287.556 30.319 287.013 30.2698 286.519 30.069C286.025 29.8682 285.602 29.5248 285.303 29.0827C285.005 28.6405 284.844 28.1196 284.843 27.5861ZM289.636 27.5861C289.636 27.0203 289.411 26.4776 289.011 26.0775C288.611 25.6774 288.069 25.4526 287.503 25.4526C286.937 25.4526 286.394 25.6774 285.994 26.0775C285.594 26.4776 285.369 27.0203 285.369 27.5861C285.369 28.1519 285.594 28.6946 285.994 29.0947C286.394 29.4948 286.937 29.7196 287.503 29.7196C288.069 29.7196 288.611 29.4948 289.011 29.0947C289.411 28.6946 289.636 28.1519 289.636 27.5861ZM286.543 26.1638H287.538C288.249 26.1638 288.548 26.562 288.548 27.0243C288.556 27.1865 288.514 27.3473 288.428 27.4848C288.341 27.6222 288.214 27.7296 288.065 27.7923C288.2 28.0697 288.449 28.6102 288.584 28.8875H288.065C287.944 28.6315 287.73 28.1764 287.609 27.8848H287.012V28.8875H286.543V26.1638ZM287.552 27.4652C287.617 27.4721 287.683 27.4655 287.745 27.446C287.807 27.4265 287.865 27.3944 287.914 27.3518C287.964 27.3091 288.004 27.2567 288.032 27.198C288.06 27.1392 288.076 27.0752 288.079 27.0101C288.079 26.7825 287.944 26.5976 287.531 26.5976H287.012V27.4652H287.552Z" fill="#081F2D"/>
</g>
<defs>
<clipPath id="clip0_124_83">
<rect width="291" height="78" fill="white"/>
</clipPath>
</defs>
</svg>
