<svg width="183" height="49" viewBox="0 0 183 49" fill="none" xmlns="http://www.w3.org/2000/svg">
<g clip-path="url(#clip0_125_176)">
<path d="M0.174252 41.4762L37.5312 25.2811C37.9467 25.0133 38.0629 24.46 37.7948 24.0449C37.5893 23.7236 37.2005 23.5719 36.8297 23.6656L0 39.6286V41.5253C0.058084 41.5163 0.120636 41.5029 0.174252 41.4762Z" fill="#00698F"/>
<path d="M0.174252 37.7766L37.5312 21.5815C37.9601 21.3361 38.1031 20.7872 37.8573 20.3632C37.6473 20.0017 37.2139 19.8322 36.8163 19.9571L0 35.9291V37.8302C0.0625519 37.8212 0.120636 37.8034 0.174252 37.7766Z" fill="#005487"/>
<path d="M0.17872 45.1445L37.5312 28.9494C37.9467 28.6817 38.0629 28.1283 37.7948 27.7133C37.5893 27.392 37.2005 27.2402 36.8297 27.3339L0 43.2969V45.1936C0.0625519 45.1847 0.120636 45.1668 0.17872 45.1445Z" fill="#006E96"/>
<path d="M0.17872 48.7905L37.5312 32.5954C37.9467 32.3321 38.0763 31.7832 37.8127 31.3637C37.6027 31.029 37.1961 30.8728 36.8163 30.9799L0 46.9429V48.8396C0.0625519 48.8307 0.120636 48.8128 0.17872 48.7905Z" fill="#0083AD"/>
<path d="M0.174252 34.0547L37.5312 17.8596C37.9467 17.5919 38.0629 17.0385 37.7948 16.6235C37.5893 16.3022 37.2005 16.1504 36.8297 16.2442L0 32.2072V34.1083C0.058084 34.0949 0.116168 34.077 0.174252 34.0547Z" fill="#004876"/>
<path d="M36.8163 17.8597C36.928 17.9087 37.0442 17.9311 37.1648 17.9311C37.6563 17.9087 38.0405 17.4937 38.0182 16.9984C38.0048 16.677 37.8171 16.387 37.5312 16.2442L0.174252 0.0490895C0.120636 0.0223134 0.058084 0.00892536 0 0V1.89664L36.8163 17.8597Z" fill="#007853"/>
<path d="M36.8163 32.5954C37.2586 32.7829 37.7724 32.5865 37.9735 32.1492C38.1612 31.7074 37.9646 31.1941 37.5267 30.9933L0.174252 14.7849C0.120636 14.7581 0.058084 14.7447 0 14.7358V16.6324L36.8163 32.5954Z" fill="#00B451"/>
<path d="M36.8163 21.5815C36.928 21.6306 37.0442 21.6574 37.1648 21.6574C37.6563 21.6485 38.0539 21.2424 38.045 20.7515C38.0405 20.4123 37.8395 20.1044 37.5312 19.9571L0.174252 3.77545C0.116168 3.75313 0.058084 3.73528 0 3.72189V5.623L36.8163 21.5815Z" fill="#00C4B3"/>
<path d="M36.8163 25.2811C36.928 25.3302 37.0442 25.3525 37.1648 25.3525C37.6563 25.3302 38.0405 24.9152 38.0182 24.4198C38.0048 24.0985 37.8171 23.8084 37.5312 23.6656L0.174252 7.46161C0.116168 7.4393 0.058084 7.42591 0 7.42145V9.31809L36.8163 25.2811Z" fill="#00ACD8"/>
<path d="M36.8163 28.9494C36.928 28.9985 37.0442 29.0208 37.1648 29.0208C37.6563 28.9985 38.0405 28.5835 38.0182 28.0881C38.0048 27.7668 37.8171 27.4768 37.5312 27.3339L0.174252 11.1389C0.120636 11.1121 0.058084 11.0987 0 11.0898V12.9864L36.8163 28.9494Z" fill="#76BC21"/>
<path d="M50.1178 16.088H54.7913L58.8125 28.7977L62.7891 16.088H67.2928L61.261 33.1801H56.1496L50.1178 16.088Z" fill="#D9D8D6"/>
<path d="M102.237 13.6335H97.6792V9.58585H102.237V13.6335ZM97.6792 16.088H102.237V33.18H97.6792V16.088Z" fill="#D9D8D6"/>
<path d="M106.419 19.3725H103.541V16.088H106.419C106.454 15.5926 106.454 15.0928 106.49 14.6287C106.66 11.1433 108.277 9.35379 112.142 9.35379C112.96 9.35379 113.773 9.42519 114.577 9.55015V12.9016C114.081 12.7901 113.576 12.732 113.067 12.7365C111.253 12.7365 110.945 13.6692 110.945 16.088H114.381V19.3725H110.954V33.18H106.419V19.3725Z" fill="#D9D8D6"/>
<path d="M123.419 15.5926C128.593 15.5926 131.886 19.31 131.886 24.6162C131.886 29.9223 128.66 33.6442 123.419 33.6442C118.178 33.6442 114.93 29.9937 114.93 24.6162C114.93 19.2386 118.21 15.5926 123.419 15.5926ZM123.384 30.1945C125.988 30.1945 127.463 27.9364 127.463 24.6162C127.463 21.2959 125.988 19.011 123.384 19.011C120.779 19.011 119.362 21.3004 119.362 24.5849C119.362 27.8695 120.814 30.1945 123.384 30.1945Z" fill="#D9D8D6"/>
<path d="M161.151 26.7404C160.571 31.1138 157.72 33.7111 153.373 33.7111C148.333 33.7111 145.147 30.0606 145.147 24.7857C145.147 19.5108 148.23 15.5971 153.404 15.5971C157.483 15.5971 160.673 17.7526 161.049 22.1349H156.8C156.558 20.1758 155.325 19.0467 153.507 19.0467C150.768 19.0467 149.602 21.6038 149.602 24.7857C149.602 27.7757 150.799 30.2614 153.373 30.2614C155.325 30.2614 156.594 28.9226 156.902 26.7449H161.151V26.7404Z" fill="#D9D8D6"/>
<path d="M71.488 25.7943C71.5908 28.6817 72.9937 30.4087 75.5986 30.4087C77.3858 30.4087 78.6502 29.4448 79.0926 27.8873H83.3461C82.3944 31.7029 79.5304 33.662 75.5092 33.662C70.2638 33.662 67.0781 30.0428 67.0781 24.634C67.0781 19.2253 70.5051 15.6417 75.4422 15.6417C80.6832 15.6417 83.3863 19.4395 83.5561 24.6519C83.5561 25.2276 83.5561 25.4239 83.5338 25.7943H71.488ZM75.3931 18.9575C72.958 18.9575 71.6936 20.7426 71.5193 22.8088H79.3517C79.0524 20.2874 77.56 18.9575 75.402 18.9575H75.3931Z" fill="#D9D8D6"/>
<path d="M166.737 25.7943C166.839 28.6817 168.242 30.4087 170.847 30.4087C172.465 30.5025 173.926 29.4493 174.346 27.8873H178.595C177.634 31.7029 174.793 33.662 170.745 33.662C165.504 33.662 162.313 30.0428 162.313 24.634C162.313 19.2253 165.745 15.6417 170.678 15.6417C175.923 15.6417 178.622 19.4395 178.791 24.6519C178.791 25.2276 178.791 25.4239 178.769 25.7943H166.737ZM170.642 18.9575C168.211 18.9575 166.942 20.7426 166.772 22.8088H174.605C174.297 20.2874 172.804 18.9575 170.642 18.9575Z" fill="#D9D8D6"/>
<path d="M85.3389 16.088H87.7204L89.092 19.3011C90.3609 17.043 92.2196 15.9407 94.7932 15.9407C95.1908 15.9184 95.5885 15.9407 95.9817 16.0121V20.0642C95.4768 19.9303 94.9585 19.8634 94.4402 19.8634C90.4637 19.8634 89.369 22.3848 89.369 26.7984V33.18H85.3479L85.3389 16.088Z" fill="#D9D8D6"/>
<path d="M133.826 16.088H136.211L137.579 19.3011C138.848 17.043 140.706 15.9407 143.28 15.9407C143.677 15.9184 144.075 15.9407 144.468 16.0121V20.0642C143.963 19.9303 143.445 19.8634 142.927 19.8634C138.95 19.8634 137.856 22.3848 137.856 26.7984V33.18H133.835L133.826 16.088Z" fill="#D9D8D6"/>
<path d="M178.957 17.3108C178.925 16.4048 179.636 15.6506 180.543 15.6194C180.565 15.6194 180.592 15.6194 180.614 15.6194C181.548 15.6015 182.317 16.3423 182.335 17.275C182.352 18.2078 181.611 18.9753 180.677 18.9932C179.743 19.011 178.975 18.2702 178.957 17.3375C178.957 17.3286 178.957 17.3197 178.957 17.3108ZM181.968 17.3108C181.968 16.5699 181.369 15.9719 180.628 15.9719C179.886 15.9719 179.287 16.5699 179.287 17.3108C179.287 18.0516 179.886 18.6496 180.628 18.6496C181.369 18.6496 181.968 18.0516 181.968 17.3108ZM180.025 16.4182H180.65C181.097 16.4182 181.285 16.6681 181.285 16.9582C181.294 17.1679 181.173 17.3598 180.981 17.4402C181.066 17.6142 181.222 17.9534 181.307 18.1274H180.981C180.905 17.9668 180.771 17.6812 180.695 17.4982H180.319V18.1274H180.025V16.4182ZM180.659 17.2349C180.824 17.2527 180.972 17.1322 180.99 16.9671C180.99 16.9627 180.99 16.9537 180.99 16.9493C180.99 16.8065 180.905 16.6904 180.646 16.6904H180.319V17.2349H180.659Z" fill="#D9D8D6"/>
</g>
<defs>
<clipPath id="clip0_125_176">
<rect width="183" height="49" fill="white"/>
</clipPath>
</defs>
</svg>
